<svg id="visual" viewBox="0 0 540 960" width="540" height="960" xmlns="http://www.w3.org/2000/svg" xmlns:xlink="http://www.w3.org/1999/xlink" version="1.1"><rect x="0" y="0" width="540" height="960" fill="#001220"></rect><defs><linearGradient id="grad1_0" x1="0%" y1="100%" x2="100%" y2="0%"><stop offset="30%" stop-color="#001220" stop-opacity="1"></stop><stop offset="70%" stop-color="#001220" stop-opacity="1"></stop></linearGradient></defs><defs><linearGradient id="grad2_0" x1="0%" y1="100%" x2="100%" y2="0%"><stop offset="30%" stop-color="#001220" stop-opacity="1"></stop><stop offset="70%" stop-color="#001220" stop-opacity="1"></stop></linearGradient></defs><g transform="translate(540, 960)"><path d="M-486 0C-483 -67 -480 -134 -449 -186C-418 -238 -358.9 -275 -308.3 -308.3C-257.7 -341.6 -215.7 -371.1 -165.7 -400C-115.7 -429 -57.9 -457.5 0 -486L0 0Z" fill="#FBAE3C"></path></g><g transform="translate(0, 0)"><path d="M486 0C462.8 57.1 439.7 114.2 419.4 173.7C399.2 233.3 381.9 295.3 343.7 343.7C305.4 392 246.4 426.6 185.6 448.1C124.8 469.5 62.4 477.8 0 486L0 0Z" fill="#FBAE3C"></path></g></svg>