<svg version="1.1" id="Layer_1" xmlns="http://www.w3.org/2000/svg" xmlns:xlink="http://www.w3.org/1999/xlink" x="0px" y="0px"
	 width="100%" viewBox="0 0 5001 4001" enable-background="new 0 0 5001 4001" xml:space="preserve">
<path fill="#FFFFFF" opacity="1.000000" stroke="none" 
	d="
M4.000002,3032.000000 
	C4.000000,2022.817017 4.000000,1013.634155 4.000000,4.225604 
	C1671.601074,4.225604 3339.202148,4.225604 5008.000000,4.225604 
	C5008.000000,1012.117188 5008.000000,2020.234863 5006.186523,3030.697998 
	C4728.563965,3033.050537 4452.755371,3033.058105 4176.946777,3033.061279 
	C4172.283691,3033.061279 4167.611816,3033.165283 4162.961426,3032.910645 
	C4160.679199,3032.785645 4157.436523,3033.651367 4157.129395,3028.647705 
	C4164.596191,3022.693359 4174.298340,3020.143066 4183.095703,3015.974365 
	C4233.786133,2991.953857 4282.557617,2964.857422 4325.428711,2928.182373 
	C4349.908203,2907.241211 4371.526855,2883.682861 4387.368652,2855.543213 
	C4425.639648,2787.563232 4427.539062,2718.340332 4389.916016,2649.784180 
	C4354.622070,2585.470947 4281.453125,2543.788818 4208.761230,2543.937500 
	C4199.440430,2543.956543 4190.120117,2544.302979 4178.877930,2544.233887 
	C4140.919922,2543.950439 4104.884277,2543.930664 4068.035645,2542.742188 
	C4064.220703,2536.424072 4061.299316,2531.225342 4058.203613,2526.132812 
	C4020.000244,2463.287842 3964.005371,2429.447266 3890.939209,2422.798828 
	C3871.577393,2421.037109 3852.574463,2423.993408 3831.431641,2424.398438 
	C3800.993164,2424.087402 3772.527100,2424.068115 3742.181396,2424.013184 
	C3715.369629,2423.898438 3690.437500,2423.819092 3665.481934,2421.991699 
	C3672.017334,2375.857666 3673.835205,2331.387939 3668.014404,2286.758545 
	C3659.263916,2219.666504 3634.955811,2159.140137 3589.962646,2108.154541 
	C3525.770264,2035.413086 3445.224365,1996.809937 3347.574707,1995.841064 
	C3332.265381,1995.689209 3316.946045,1996.532471 3299.647461,1996.577637 
	C3254.540039,1996.255005 3211.416748,1996.270264 3166.424561,1996.182983 
	C3146.610596,1995.090576 3128.961182,1997.345215 3111.190918,1999.746948 
	C3087.623047,2002.932373 3064.082031,2005.508667 3041.861084,2014.801758 
	C3032.707764,2018.629883 3022.924561,2021.060669 3014.022949,2025.359741 
	C2993.160156,2035.435181 2972.327148,2045.276611 2953.616699,2059.662598 
	C2932.898438,2075.592041 2916.083740,2095.250732 2897.231201,2112.922852 
	C2895.326416,2114.708252 2893.987061,2117.097900 2892.389648,2119.210449 
	C2874.777344,2142.498779 2859.115723,2167.019043 2845.386230,2192.801270 
	C2843.602783,2196.150635 2840.259277,2198.669434 2835.946777,2201.996094 
	C2816.629395,2201.850830 2798.992676,2200.630371 2781.380859,2200.922363 
	C2767.701172,2201.148926 2754.052490,2203.261963 2739.269043,2203.291016 
	C2727.152344,2198.689453 2716.125732,2199.792480 2705.032715,2201.583496 
	C2698.581787,2202.625244 2692.055664,2203.620117 2685.542969,2203.777344 
	C2671.706787,2204.110840 2657.856934,2203.882568 2642.821777,2202.721191 
	C2624.393799,2201.174316 2607.012695,2199.306396 2589.972656,2200.956299 
	C2579.508301,2201.969727 2569.074463,2204.060303 2558.427979,2204.107910 
	C2555.799805,2204.119629 2553.117920,2204.537842 2550.556396,2205.162842 
	C2520.177979,2212.574463 2490.466553,2222.110596 2462.787842,2236.758057 
	C2442.907715,2247.278564 2424.124023,2259.609131 2405.706299,2272.764893 
	C2375.890381,2294.062500 2353.227051,2321.679443 2332.939209,2351.131592 
	C2314.861572,2377.375244 2301.267334,2406.322021 2293.232422,2437.605469 
	C2285.796631,2466.556152 2279.132568,2495.540283 2280.005127,2525.697266 
	C2280.483887,2542.242676 2280.750977,2558.633789 2283.070557,2575.257568 
	C2285.750000,2594.460449 2289.884766,2613.074463 2295.472168,2631.395996 
	C2306.431396,2667.333252 2324.762451,2699.727783 2345.674316,2730.693848 
	C2349.736084,2736.708496 2355.029541,2741.889648 2359.734131,2747.472412 
	C2370.833984,2760.644043 2381.839600,2773.896484 2393.075684,2786.950928 
	C2395.651367,2789.943604 2398.943604,2792.339844 2402.009521,2794.886230 
	C2407.098877,2799.113281 2412.362549,2803.133301 2417.391846,2807.429199 
	C2429.494629,2817.766846 2440.913818,2829.009277 2453.664307,2838.463379 
	C2487.804932,2863.777588 2522.741699,2888.200684 2560.455322,2907.800049 
	C2605.314941,2931.112305 2650.703613,2953.632080 2697.017822,2973.849121 
	C2734.067139,2990.021729 2772.842773,3002.241943 2810.856445,3016.204346 
	C2817.086182,3018.492920 2823.356689,3020.669922 2829.572998,3022.993652 
	C2833.772217,3024.563232 2835.742432,3027.812256 2834.163574,3032.538574 
	C2825.652100,3032.944092 2818.989746,3033.055420 2812.327637,3033.055420 
	C1882.169678,3033.066406 952.011658,3033.071533 21.853651,3033.028564 
	C15.902420,3033.028320 9.951220,3032.357422 4.000002,3032.000000 
M4217.100586,1415.436768 
	C4218.099609,1414.491455 4219.098145,1413.546143 4221.528809,1412.526123 
	C4222.403320,1411.692139 4223.317871,1410.892578 4224.100586,1409.979736 
	C4224.194824,1409.869873 4223.574707,1409.147949 4222.566895,1407.619751 
	C4216.188965,1408.884521 4209.314453,1410.247803 4198.760742,1411.754517 
	C4195.528320,1411.754517 4192.295898,1411.754517 4188.421387,1411.754517 
	C4185.279785,1399.805054 4182.308105,1388.500854 4178.589844,1374.357056 
	C4174.531738,1388.778076 4174.592773,1400.899414 4169.219238,1412.527588 
	C4157.995605,1411.566040 4147.162109,1410.637939 4133.725098,1409.486816 
	C4143.548828,1419.873169 4156.732910,1421.414551 4164.488281,1430.988281 
	C4161.052734,1438.893677 4157.862305,1446.141724 4154.756348,1453.425659 
	C4153.433594,1456.527588 4150.196289,1459.496094 4153.371582,1463.698730 
	C4162.087891,1455.701660 4170.296875,1448.169678 4178.945801,1440.234497 
	C4189.961426,1446.514404 4196.733887,1457.245605 4208.083008,1463.961792 
	C4205.533691,1450.449707 4196.141113,1441.391235 4195.029785,1428.713867 
	C4201.400391,1424.730835 4207.557617,1420.881348 4213.801758,1417.355591 
	C4213.801758,1417.355591 4213.522949,1417.490723 4217.100586,1415.436768 
M4514.038574,2288.471680 
	C4507.084961,2286.631348 4500.167969,2284.706543 4493.211426,2280.459717 
	C4498.627441,2256.473633 4503.902832,2233.111084 4509.993652,2206.137207 
	C4499.867188,2217.574219 4493.614258,2227.683594 4486.641113,2237.220459 
	C4479.246582,2247.333740 4472.659668,2258.082275 4463.680664,2268.271729 
	C4459.048340,2265.643311 4455.097656,2263.469971 4451.215820,2261.181396 
	C4446.627930,2258.476807 4442.101562,2255.667480 4437.542969,2252.913086 
	C4433.554199,2250.503418 4429.552734,2248.114502 4425.564941,2245.703369 
	C4421.008789,2242.948242 4416.579590,2239.954834 4411.872559,2237.488281 
	C4408.268555,2235.599854 4405.076172,2232.023438 4398.950195,2232.403564 
	C4413.286133,2253.530762 4428.798828,2271.697754 4441.950195,2291.980957 
	C4424.415527,2310.420654 4403.719238,2323.614258 4386.722168,2342.938477 
	C4412.153809,2336.538574 4434.360352,2325.776123 4458.298828,2320.618164 
	C4469.489746,2342.622314 4476.565918,2365.283203 4488.520508,2386.028320 
	C4489.702637,2381.987549 4489.746094,2378.150391 4489.694336,2374.314453 
	C4489.478027,2358.322998 4489.072754,2342.331543 4489.103516,2326.340820 
	C4489.111816,2321.992920 4490.401367,2317.647949 4491.129395,2313.139648 
	C4515.584473,2310.903076 4538.879883,2308.772705 4562.175293,2306.642334 
	C4562.277832,2305.794678 4562.380859,2304.947021 4562.483398,2304.099365 
	C4547.378418,2299.224854 4532.273438,2294.350586 4514.038574,2288.471680 
M4678.945801,2869.989746 
	C4679.539551,2870.289551 4680.157715,2870.862061 4680.719238,2870.810547 
	C4681.256836,2870.761475 4682.229492,2869.802490 4682.169434,2869.689453 
	C4674.099609,2854.451172 4665.871094,2839.296143 4657.853027,2824.030762 
	C4655.162109,2818.908203 4652.998047,2813.508789 4650.298340,2807.588867 
	C4654.953613,2804.232666 4658.536133,2801.431152 4662.330566,2798.954346 
	C4674.572754,2790.962891 4687.066406,2783.338867 4699.044434,2774.973633 
	C4701.598633,2773.189941 4707.037598,2773.057617 4706.175293,2767.196777 
	C4683.058105,2769.012695 4661.025391,2777.240967 4637.478516,2778.043945 
	C4631.012207,2754.656738 4624.799805,2732.187012 4618.040039,2707.738525 
	C4611.421875,2733.081299 4612.778809,2757.385986 4606.092773,2779.787109 
	C4604.226074,2780.175049 4603.569336,2780.452148 4602.924805,2780.425293 
	C4581.680664,2779.542236 4560.437988,2778.625488 4539.193359,2777.752441 
	C4538.712891,2777.732422 4537.998535,2778.036621 4537.775879,2778.415039 
	C4537.489258,2778.902588 4537.589355,2779.617432 4537.469727,2780.721436 
	C4556.965332,2792.499268 4579.568359,2798.920654 4598.778809,2812.072021 
	C4591.919434,2835.076904 4580.857910,2855.516846 4574.675781,2879.531982 
	C4594.229004,2863.033691 4607.551758,2842.913818 4626.626953,2828.100830 
	C4644.040039,2842.196045 4660.552734,2855.562256 4678.945801,2869.989746 
M2940.409912,1325.149780 
	C2936.487549,1310.766846 2933.945801,1295.966675 2927.428711,1282.012573 
	C2922.510010,1302.553955 2922.165039,1323.693970 2916.182373,1344.579956 
	C2894.744629,1343.328735 2874.483643,1342.146240 2850.643066,1340.754761 
	C2870.845459,1354.770630 2891.714355,1360.160156 2909.240234,1372.342407 
	C2907.796875,1376.886230 2906.796143,1380.687744 2905.392334,1384.334473 
	C2900.614014,1396.746582 2895.637695,1409.082520 2890.866943,1421.497437 
	C2889.655029,1424.650879 2886.386475,1427.772461 2889.220703,1431.268799 
	C2896.721680,1424.110352 2904.020752,1417.363892 2911.065430,1410.361206 
	C2918.555664,1402.914917 2925.804932,1395.226440 2933.330566,1387.467529 
	C2951.964111,1399.555420 2966.116211,1415.293091 2985.625977,1428.204834 
	C2977.010254,1405.972778 2963.711426,1389.084229 2956.422363,1368.479736 
	C2968.941406,1360.441162 2980.763428,1353.068359 2992.339111,1345.327515 
	C2998.316162,1341.330566 3003.848145,1336.670166 3009.607178,1332.344116 
	C3010.014893,1332.037720 3010.638184,1332.018188 3011.161621,1331.865234 
	C3011.097412,1332.029053 3011.033447,1332.192871 3011.215332,1331.727661 
	C2989.373291,1335.399902 2967.873535,1339.014648 2946.058594,1342.682373 
	C2944.200439,1337.287354 2942.695312,1332.916992 2940.409912,1325.149780 
M2214.465576,2684.124023 
	C2205.426270,2676.243652 2196.395264,2668.354248 2187.323486,2660.511719 
	C2186.885986,2660.133545 2186.041992,2659.949463 2185.479248,2660.077881 
	C2185.014404,2660.184082 2184.685547,2660.887207 2183.907471,2661.763916 
	C2190.784180,2675.876465 2197.884033,2690.134766 2204.656250,2704.547119 
	C2206.518555,2708.510254 2207.401611,2712.933594 2208.610352,2716.754395 
	C2191.778320,2729.480225 2172.802734,2736.415527 2156.131104,2750.301514 
	C2178.579590,2749.364990 2198.335205,2743.277588 2219.655518,2743.552246 
	C2224.348633,2763.692871 2228.897461,2783.214844 2234.094482,2805.518311 
	C2241.934570,2783.196533 2240.662109,2761.903076 2248.487549,2742.017822 
	C2269.428223,2743.833984 2289.713867,2745.593262 2309.999268,2747.352539 
	C2310.181641,2746.691162 2310.364014,2746.029541 2310.546387,2745.367920 
	C2292.213379,2735.410156 2273.880371,2725.452393 2254.958496,2715.174805 
	C2259.664795,2704.261963 2264.052734,2694.603760 2268.006104,2684.771240 
	C2271.718506,2675.537354 2277.122070,2666.879883 2279.677246,2654.275146 
	C2262.874756,2670.421631 2248.108887,2684.611084 2232.668457,2699.448730 
	C2226.678467,2694.494141 2221.633057,2690.321045 2214.465576,2684.124023 
M3826.797607,2249.243652 
	C3835.720215,2236.288330 3841.389160,2221.099609 3852.944580,2209.592773 
	C3867.902588,2216.920898 3882.117676,2223.885010 3899.197021,2232.252441 
	C3888.931396,2215.675049 3875.393799,2205.518555 3866.563965,2190.625977 
	C3876.130371,2177.150146 3890.156982,2167.854736 3900.977539,2152.541992 
	C3883.012207,2158.012451 3868.887695,2166.786621 3852.250000,2171.432129 
	C3844.522217,2156.690918 3837.237549,2142.794434 3828.870605,2126.833252 
	C3825.055176,2145.461426 3832.505371,2161.661377 3829.115234,2178.398682 
	C3813.049072,2181.287109 3797.572510,2184.069336 3782.095947,2186.851807 
	C3782.069092,2187.633789 3782.042236,2188.415771 3782.015625,2189.197754 
	C3797.676758,2193.179443 3813.338135,2197.160889 3829.741699,2201.331299 
	C3828.270996,2211.852295 3826.750732,2221.019531 3825.779785,2230.244385 
	C3825.070312,2236.984619 3821.202637,2243.738281 3826.797607,2249.243652 
M3445.485596,1534.835449 
	C3439.235840,1526.544067 3430.031494,1520.454956 3426.139404,1510.109009 
	C3435.438232,1500.040283 3444.278564,1490.468140 3453.118896,1480.895996 
	C3452.653809,1480.222900 3452.188477,1479.549805 3451.723389,1478.876831 
	C3439.088867,1484.013672 3426.454102,1489.150513 3413.961426,1494.229614 
	C3404.301025,1482.770752 3401.232178,1468.426514 3390.255615,1456.719849 
	C3391.455322,1472.232178 3392.491455,1485.629883 3393.599121,1499.954102 
	C3380.065918,1505.684448 3365.280518,1504.423706 3349.689697,1510.868164 
	C3365.933594,1514.725098 3379.318115,1517.903076 3392.185303,1520.958252 
	C3394.202148,1535.834229 3388.393555,1548.957520 3389.408447,1565.956421 
	C3398.548340,1551.364624 3405.797363,1539.791382 3413.234131,1527.918457 
	C3425.845947,1533.711670 3437.250732,1538.995483 3448.731201,1544.109863 
	C3449.398193,1544.407104 3450.676758,1543.331787 3451.948486,1542.773315 
	C3450.344971,1540.652710 3448.791016,1538.597290 3445.485596,1534.835449 
M2345.429199,2081.752930 
	C2346.866943,2080.375488 2348.304443,2078.998047 2350.772949,2076.632812 
	C2361.599121,2082.523438 2372.976318,2088.713623 2388.106445,2096.945801 
	C2378.017090,2083.069824 2370.435303,2072.642334 2363.472900,2063.066895 
	C2373.585938,2052.417969 2382.673096,2042.848999 2392.816406,2032.168091 
	C2378.028809,2035.009155 2366.208496,2043.143433 2351.806641,2044.739014 
	C2348.651123,2038.153320 2346.193359,2032.020508 2342.873291,2026.396729 
	C2339.959961,2021.460938 2340.037109,2014.287109 2333.232422,2012.138062 
	C2331.041748,2024.550659 2336.296631,2037.139160 2332.115967,2050.013916 
	C2319.317383,2052.035889 2306.891113,2053.999023 2292.504883,2056.271973 
	C2306.492188,2062.788330 2320.312744,2062.826660 2331.990967,2070.169189 
	C2329.812744,2082.698975 2327.771729,2094.438965 2325.730469,2106.178955 
	C2326.589600,2106.514893 2327.448975,2106.850830 2328.308105,2107.186768 
	C2333.472168,2099.602051 2338.636230,2092.017334 2345.429199,2081.752930 
M3848.878662,1432.796265 
	C3845.177246,1429.094727 3842.025146,1424.468994 3837.664307,1421.876099 
	C3827.260010,1415.689819 3812.908936,1418.155518 3804.598145,1426.574951 
	C3795.571777,1435.718994 3793.717285,1448.382080 3799.764648,1459.584351 
	C3805.733887,1470.642090 3817.785889,1476.238525 3829.965332,1473.608521 
	C3842.709473,1470.856323 3851.379395,1461.612427 3852.158203,1448.909424 
	C3852.432861,1444.423340 3850.927979,1439.828125 3848.878662,1432.796265 
M2776.858398,1919.820801 
	C2785.337402,1913.935669 2793.816162,1908.050659 2802.438965,1902.065796 
	C2810.370850,1909.925659 2817.384277,1916.875732 2827.270020,1926.671997 
	C2822.725586,1913.006226 2819.471191,1903.220825 2816.078369,1893.018433 
	C2826.033203,1887.709717 2834.985107,1882.935913 2845.259033,1877.456909 
	C2833.008545,1874.336914 2822.297363,1878.930908 2811.353027,1875.353271 
	C2809.761963,1865.130981 2808.237305,1855.334717 2806.665283,1845.235107 
	C2798.479736,1853.886719 2801.461914,1867.107910 2794.337891,1875.323364 
	C2783.685547,1876.331421 2774.598633,1869.657349 2763.257568,1873.014893 
	C2772.306641,1879.354614 2780.260254,1884.927002 2788.979004,1891.035156 
	C2784.431641,1900.440918 2780.144775,1909.307617 2776.858398,1919.820801 
M4807.652832,2344.952393 
	C4808.554688,2352.145020 4809.457031,2359.337646 4810.535645,2367.937256 
	C4804.667480,2369.538330 4798.935059,2370.856445 4793.382324,2372.713135 
	C4790.198730,2373.777588 4787.306641,2375.715576 4783.271973,2377.777100 
	C4793.308594,2381.871582 4803.780762,2378.320557 4811.254395,2386.085205 
	C4810.798828,2395.059814 4810.350098,2403.901123 4809.746582,2415.802246 
	C4816.363281,2404.636475 4821.283691,2396.333984 4826.285645,2387.893555 
	C4836.329102,2391.445801 4845.072266,2394.538330 4855.738281,2398.310791 
	C4847.747559,2389.353760 4841.210449,2382.026367 4834.429688,2374.425781 
	C4840.694336,2366.680420 4846.267578,2359.789795 4851.840820,2352.899170 
	C4851.328125,2352.322266 4850.815918,2351.745117 4850.303223,2351.167969 
	C4842.061523,2354.897461 4833.819824,2358.626709 4824.857910,2362.681641 
	C4820.523438,2356.129883 4816.658203,2349.970703 4812.422363,2344.077881 
	C4811.153320,2342.312744 4808.850098,2341.291260 4807.020508,2339.928955 
	C4807.453613,2340.251465 4808.229492,2340.560059 4808.243652,2340.899658 
	C4808.267578,2341.487305 4807.818359,2342.094238 4807.652832,2344.952393 
M3335.328857,1070.319336 
	C3335.007324,1063.346924 3335.082275,1056.326660 3333.691650,1044.883545 
	C3328.093262,1057.020264 3324.401855,1065.023193 3320.562256,1073.347046 
	C3310.781738,1071.241089 3302.210205,1069.395508 3291.013184,1066.984497 
	C3299.895508,1075.094604 3306.551514,1081.171753 3312.364014,1086.478882 
	C3311.257812,1097.208862 3301.349365,1102.162231 3300.821533,1112.478271 
	C3309.323486,1107.489380 3316.651855,1103.189087 3324.672852,1098.482422 
	C3331.305908,1105.841064 3337.335693,1112.530273 3343.790527,1119.691284 
	C3345.604004,1108.825073 3336.584961,1100.082153 3340.463867,1090.085938 
	C3344.626709,1088.307251 3348.267578,1086.717041 3351.936523,1085.193604 
	C3355.856201,1083.566284 3361.046875,1083.852295 3363.177734,1077.572144 
	C3355.824951,1077.241211 3349.313232,1077.182617 3342.860840,1076.535645 
	C3340.465576,1076.295288 3338.208740,1074.675049 3335.328857,1070.319336 
M3962.424561,1806.291016 
	C3960.348877,1801.418823 3958.172363,1796.586182 3956.231934,1791.660645 
	C3954.854736,1788.164307 3954.312988,1784.125610 3950.088135,1783.414795 
	C3947.910400,1792.333374 3950.163086,1801.766113 3946.993408,1811.111816 
	C3937.557373,1811.664429 3929.138428,1812.157471 3916.547852,1812.894775 
	C3928.275146,1818.335815 3936.344238,1822.079590 3945.083496,1826.134277 
	C3943.041260,1835.599976 3941.163330,1844.302856 3938.590332,1856.227539 
	C3946.607178,1847.058594 3952.561768,1840.248535 3959.154541,1832.708496 
	C3967.362305,1837.651733 3975.339844,1842.456299 3986.244385,1849.023682 
	C3979.755127,1837.929932 3975.149658,1830.056885 3970.349609,1821.850586 
	C3977.911865,1815.019287 3984.649658,1808.932739 3993.248047,1801.165405 
	C3982.291504,1803.709961 3973.945557,1805.648315 3962.424561,1806.291016 
M3243.754639,1863.304321 
	C3239.069580,1865.560913 3233.532959,1866.888550 3229.862549,1870.252197 
	C3219.712402,1879.553833 3220.279297,1896.560181 3230.256104,1905.894775 
	C3239.888184,1914.907227 3255.058594,1914.787598 3264.543213,1905.624634 
	C3274.687988,1895.823975 3274.708740,1879.963989 3264.645996,1869.923218 
	C3259.624023,1864.912476 3253.552979,1862.826904 3243.754639,1863.304321 
M4188.772461,2158.025879 
	C4185.862793,2162.375732 4181.814453,2166.359619 4180.273926,2171.149414 
	C4176.818359,2181.892090 4181.671875,2193.377441 4190.742676,2198.951904 
	C4200.213379,2204.772217 4211.992188,2203.834961 4220.449219,2196.587646 
	C4227.955078,2190.155518 4230.865234,2178.927246 4227.540527,2169.226562 
	C4224.202148,2159.484619 4213.461914,2152.088623 4202.573242,2152.829346 
	C4198.734375,2153.090576 4195.018555,2155.160889 4188.772461,2158.025879 
M2172.849121,2310.903320 
	C2176.107422,2307.644775 2180.184814,2304.871582 2182.461426,2301.030762 
	C2188.005127,2291.678467 2185.970459,2278.992676 2178.600586,2271.548096 
	C2170.619629,2263.486328 2159.158447,2261.691406 2149.341797,2266.966797 
	C2139.322266,2272.351074 2134.231201,2282.782227 2136.304199,2293.678711 
	C2138.334717,2304.354004 2146.922607,2312.318115 2158.406738,2313.378906 
	C2162.264160,2313.735596 2166.262939,2312.562988 2172.849121,2310.903320 
M4676.432617,1708.342773 
	C4678.182617,1705.348145 4684.156250,1705.489990 4682.376953,1698.698486 
	C4674.979492,1700.349365 4667.652832,1701.984741 4660.286133,1703.628784 
	C4656.436523,1695.276978 4653.135254,1688.114990 4649.265137,1679.719238 
	C4645.440430,1689.524658 4649.621582,1698.811646 4644.450684,1705.784180 
	C4636.413086,1709.296631 4627.724609,1705.558716 4619.776367,1710.333984 
	C4628.364746,1714.206787 4635.984375,1717.642578 4643.732422,1721.136475 
	C4641.599609,1730.289429 4639.756836,1738.199219 4637.157227,1749.356567 
	C4645.034668,1740.519775 4650.645996,1734.224609 4656.770020,1727.354980 
	C4664.492188,1731.826660 4671.629395,1735.959229 4682.721191,1742.381958 
	C4675.949219,1731.575439 4671.588379,1724.616577 4666.811035,1716.993408 
	C4669.714844,1714.259033 4672.049805,1712.059937 4676.432617,1708.342773 
M4344.948242,1811.289062 
	C4345.127930,1807.372192 4346.233398,1803.223755 4345.322266,1799.579590 
	C4341.846680,1785.676636 4328.915527,1779.210449 4315.857422,1784.297241 
	C4304.678223,1788.652222 4299.390137,1803.439941 4305.041016,1814.544800 
	C4310.602539,1825.474487 4324.855957,1829.476074 4336.024414,1822.681274 
	C4339.258301,1820.714111 4341.395020,1816.943115 4344.948242,1811.289062 
M4712.300781,2073.619141 
	C4715.015625,2076.492920 4717.260254,2080.159912 4720.529785,2082.096924 
	C4731.641113,2088.678955 4746.242188,2084.383545 4751.417480,2073.541260 
	C4757.292480,2061.233643 4750.990723,2046.819580 4738.048828,2042.960815 
	C4725.531738,2039.228516 4713.666504,2046.052612 4710.872559,2059.166016 
	C4710.080078,2062.883789 4711.165527,2067.002197 4712.300781,2073.619141 
M3713.275391,1764.028442 
	C3709.278564,1761.998535 3705.430420,1758.700439 3701.252930,1758.209717 
	C3693.223389,1757.266357 3685.843750,1764.597900 3685.267090,1772.573486 
	C3684.737549,1779.895386 3690.268799,1787.162964 3697.368896,1788.474121 
	C3706.275146,1790.118896 3713.846191,1786.099854 3715.763916,1777.724365 
	C3716.589844,1774.116577 3715.258057,1770.014526 3713.275391,1764.028442 
M3641.583740,1168.406250 
	C3635.011230,1167.694580 3629.950195,1170.302124 3626.234131,1175.597168 
	C3622.398926,1181.062012 3622.916748,1188.901855 3627.307373,1193.996582 
	C3632.064941,1199.516846 3639.099609,1201.293823 3645.208252,1198.518188 
	C3652.208740,1195.337280 3656.248779,1187.632080 3654.494629,1180.663940 
	C3653.100342,1175.126099 3649.553955,1171.416992 3641.583740,1168.406250 
M2555.707031,1594.516602 
	C2555.659668,1599.473755 2557.583008,1603.624756 2561.432373,1606.609009 
	C2567.905273,1611.627441 2577.787598,1610.649902 2583.025635,1604.737305 
	C2588.190674,1598.907227 2588.338867,1590.955444 2583.397217,1584.772095 
	C2578.388916,1578.505249 2568.717529,1576.940063 2562.154541,1582.205811 
	C2559.312744,1584.485962 2557.959717,1588.621460 2555.707031,1594.516602 
M4872.852539,2837.214844 
	C4872.407715,2841.031494 4871.085449,2845.004639 4871.731445,2848.626953 
	C4872.613770,2853.576416 4876.558105,2856.187500 4881.741211,2856.611328 
	C4887.787598,2857.105713 4892.139160,2854.695801 4894.490723,2849.394287 
	C4896.589844,2844.661621 4895.825195,2840.305176 4892.370605,2836.593506 
	C4887.029785,2830.855713 4881.122070,2830.358643 4872.852539,2837.214844 
z"/>
<path fill="#FFFFFF" opacity="1.000000" stroke="none" 
	d="
M5008.000000,3060.000000 
	C5008.000000,3375.922607 5008.000000,3691.844971 5008.000000,4007.729980 
	C3340.000000,4007.729980 1672.000000,4007.729980 4.000000,4007.729980 
	C4.000000,3692.869873 4.000000,3378.280029 5.811625,3062.381348 
	C18.279655,3061.250732 28.936056,3061.584473 39.592464,3061.584717 
	C1081.169556,3061.608398 2122.746582,3061.597168 3164.323730,3061.658691 
	C3192.960693,3061.660400 3221.597900,3062.430908 3252.203857,3063.309570 
	C3270.630859,3063.813965 3287.090576,3063.992188 3303.546387,3063.819824 
	C3310.036377,3063.751709 3316.518311,3062.901367 3324.915283,3062.118652 
	C3508.595215,3061.955078 3690.363770,3062.073730 3872.132324,3062.256348 
	C3875.410400,3062.259521 3878.687988,3063.029053 3883.231689,3063.428711 
	C3888.486084,3061.538086 3892.387207,3062.272705 3898.119385,3063.809326 
	C3919.285156,3063.833740 3938.593994,3063.979980 3957.900391,3063.837646 
	C3968.514160,3063.759521 3979.124023,3063.195801 3991.294922,3062.575684 
	C4006.174072,3062.069336 4019.494141,3061.637695 4032.813965,3061.635986 
	C4349.272949,3061.598145 4665.731445,3061.619629 4982.190430,3061.539551 
	C4990.793457,3061.537354 4999.396973,3060.535645 5008.000000,3060.000000 
z"/>
<path fill="#FB3B50" opacity="1.000000" stroke="none" 
	d="
M5008.000000,3058.250000 
	C4999.396973,3060.535645 4990.793457,3061.537354 4982.190430,3061.539551 
	C4665.731445,3061.619629 4349.272949,3061.598145 4032.813965,3061.635986 
	C4019.494141,3061.637695 4006.174072,3062.069336 3990.947266,3061.239746 
	C3991.702393,3053.343506 3998.767334,3054.268799 4003.863770,3052.427246 
	C4045.728271,3037.297607 4088.150391,3023.645752 4129.669434,3007.642334 
	C4182.564453,2987.254639 4232.790039,2961.353516 4279.079590,2928.303955 
	C4310.767578,2905.679688 4338.763672,2879.367188 4359.645508,2846.167725 
	C4382.031250,2810.577393 4392.222168,2771.666992 4386.727539,2729.945801 
	C4378.485352,2667.366455 4345.171387,2621.479004 4289.135254,2592.696777 
	C4251.963379,2573.604492 4212.896484,2565.506592 4169.806641,2577.370117 
	C4148.357422,2582.014648 4129.115234,2588.032471 4110.154785,2598.909668 
	C4098.639160,2605.284180 4088.584961,2611.421631 4078.357666,2617.255615 
	C4074.518799,2619.445557 4070.277832,2620.930664 4065.840088,2621.243164 
	C4060.817383,2605.178223 4057.085938,2590.236328 4051.343506,2576.112061 
	C4039.172852,2546.177979 4022.189697,2518.918945 3998.057861,2497.256592 
	C3956.462646,2459.917725 3907.016357,2446.542480 3850.349609,2452.814453 
	C3842.962158,2453.939209 3836.963867,2454.711182 3831.252441,2456.433350 
	C3816.036865,2461.020508 3800.567871,2465.152344 3786.410156,2475.664551 
	C3767.512939,2486.051025 3752.606934,2499.215088 3739.851807,2514.810303 
	C3714.990234,2545.207520 3702.366455,2580.375732 3699.612549,2619.303467 
	C3696.116455,2668.722900 3706.532471,2715.959961 3722.257080,2762.331543 
	C3744.828125,2828.893555 3776.714111,2890.996094 3813.846924,2950.412354 
	C3831.460938,2978.596191 3850.878662,3005.652588 3870.031738,3034.554932 
	C3875.099121,3042.229248 3879.698486,3048.510254 3884.093994,3054.930908 
	C3886.451416,3058.375000 3883.970947,3060.922119 3881.965820,3063.441162 
	C3878.687988,3063.029053 3875.410400,3062.259521 3872.132324,3062.256348 
	C3690.363770,3062.073730 3508.595215,3061.955078 3324.989258,3060.519531 
	C3325.064453,3055.755615 3326.584961,3052.004639 3328.947266,3048.893311 
	C3371.296387,2993.112061 3410.289062,2935.041260 3446.804932,2875.319092 
	C3503.553711,2782.505371 3554.526611,2686.765137 3591.910645,2584.288574 
	C3616.632568,2516.521484 3635.978027,2447.613525 3641.511230,2375.106445 
	C3644.849609,2331.360352 3641.737549,2288.540039 3630.935059,2246.354492 
	C3600.935303,2129.196533 3500.051025,2035.972900 3367.114502,2024.797241 
	C3350.030273,2023.360962 3332.588135,2021.945679 3313.843994,2026.567139 
	C3292.825684,2028.241821 3273.812744,2031.458862 3253.897949,2038.114014 
	C3190.454346,2055.267822 3140.715576,2090.073975 3101.840332,2140.764648 
	C3067.427734,2185.636963 3043.439453,2235.680176 3028.313232,2290.075684 
	C3026.935791,2295.029785 3025.241699,2299.895264 3023.752197,2304.618896 
	C3020.420654,2304.234131 3018.441650,2304.005859 3015.691895,2302.647949 
	C2984.336182,2279.990234 2950.854004,2264.250977 2915.833008,2251.448975 
	C2880.052490,2238.368896 2843.029053,2231.577393 2805.168945,2229.116943 
	C2796.744629,2228.569336 2787.959961,2227.056396 2778.036133,2230.988770 
	C2755.324219,2232.105469 2734.545654,2234.279053 2713.786865,2243.635742 
	C2678.406006,2254.402832 2647.294189,2270.629395 2618.601318,2291.536865 
	C2522.996338,2361.201416 2481.574951,2477.639648 2503.145020,2587.391357 
	C2512.705811,2636.038330 2533.913818,2679.233154 2563.531494,2718.569336 
	C2594.243164,2759.358398 2631.719482,2793.139893 2672.771729,2823.127686 
	C2722.906982,2859.750244 2777.048096,2889.533936 2832.843994,2916.468750 
	C2913.867188,2955.581787 2998.292969,2985.759033 3084.253174,3011.815918 
	C3105.832275,3018.357666 3127.803955,3023.604980 3150.890137,3030.389893 
	C3171.145264,3036.591797 3190.050293,3042.061279 3209.089111,3047.016602 
	C3217.934326,3049.318848 3227.039795,3050.621338 3237.098633,3053.160645 
	C3241.299561,3054.854492 3244.438477,3055.734375 3247.556396,3056.683105 
	C3250.821533,3057.677002 3250.738525,3060.181152 3250.234863,3062.842773 
	C3221.597900,3062.430908 3192.960693,3061.660400 3164.323730,3061.658691 
	C2122.746582,3061.597168 1081.169556,3061.608398 39.592464,3061.584717 
	C28.936056,3061.584473 18.279655,3061.250732 5.811625,3060.536377 
	C4.000000,3051.833252 4.000000,3043.666748 4.000002,3033.750000 
	C9.951220,3032.357422 15.902420,3033.028320 21.853651,3033.028564 
	C952.011658,3033.071533 1882.169678,3033.066406 2812.327637,3033.055420 
	C2818.989746,3033.055420 2825.652100,3032.944092 2836.002441,3032.939941 
	C2874.455566,3032.737793 2909.220947,3032.480225 2945.829102,3032.622070 
	C2978.271240,3032.820801 3008.870117,3032.624268 3039.468994,3032.389648 
	C3040.033447,3032.385254 3040.926514,3032.049316 3041.074707,3031.648682 
	C3041.270508,3031.121582 3040.879395,3030.376953 3040.528076,3028.730957 
	C3036.148926,3027.195312 3031.285889,3025.410645 3026.371826,3023.779297 
	C2979.039062,3008.067139 2932.103516,2991.266602 2886.156738,2971.833984 
	C2810.633057,2939.892090 2737.637207,2903.142334 2670.044189,2856.378906 
	C2624.400391,2824.801025 2582.389404,2789.069336 2547.888672,2745.262939 
	C2488.518555,2669.878906 2459.202637,2585.463135 2471.648438,2488.650879 
	C2480.401855,2420.563232 2507.661865,2361.113037 2554.244385,2310.614014 
	C2592.948975,2268.655029 2639.923584,2239.281982 2693.329590,2219.924072 
	C2708.838135,2214.302734 2724.693604,2209.639160 2740.390137,2204.536377 
	C2754.052490,2203.261963 2767.701172,2201.148926 2781.380859,2200.922363 
	C2798.992676,2200.630371 2816.629395,2201.850830 2837.367188,2202.867676 
	C2863.438232,2208.225342 2886.397217,2213.134521 2910.664551,2218.812988 
	C2944.375244,2229.595215 2974.662354,2244.594482 3005.477539,2260.695068 
	C3007.890625,2255.452148 3010.089844,2251.470459 3011.607666,2247.244141 
	C3020.612305,2222.172119 3031.712402,2198.048340 3044.663086,2174.804932 
	C3093.369873,2087.387939 3164.273682,2028.552856 3263.043945,2005.770264 
	C3275.903076,2002.804199 3288.768555,1999.866333 3301.631348,1996.915527 
	C3316.946045,1996.532471 3332.265381,1995.689209 3347.574707,1995.841064 
	C3445.224365,1996.809937 3525.770264,2035.413086 3589.962646,2108.154541 
	C3634.955811,2159.140137 3659.263916,2219.666504 3668.014404,2286.758545 
	C3673.835205,2331.387939 3672.017334,2375.857666 3664.939453,2423.360840 
	C3661.338867,2444.239502 3658.257568,2462.000732 3654.223877,2480.902344 
	C3639.952637,2538.166016 3620.413574,2592.207275 3598.650879,2645.512451 
	C3596.177002,2651.572021 3594.254395,2657.857178 3591.169434,2665.134033 
	C3567.783447,2715.996094 3543.642578,2764.924316 3516.617920,2812.401123 
	C3515.977051,2813.527344 3515.812988,2814.925049 3514.922852,2816.531250 
	C3514.418701,2816.866211 3514.188232,2818.058350 3513.356445,2819.151123 
	C3506.524170,2830.554932 3500.540527,2840.875977 3494.519775,2851.175293 
	C3461.258301,2908.076416 3425.569092,2963.411621 3387.642822,3017.315674 
	C3384.785156,3021.376953 3379.970703,3024.822998 3381.044189,3032.151123 
	C3386.947266,3032.462158 3392.697510,3033.024658 3398.447998,3033.029053 
	C3471.664795,3033.084473 3544.881592,3033.079834 3618.098389,3033.016602 
	C3624.066406,3033.011230 3630.034180,3032.463379 3637.841309,3032.569824 
	C3678.426270,3032.692383 3717.172363,3032.412109 3757.760254,3032.541992 
	C3781.588135,3032.903809 3803.573730,3032.879639 3825.558594,3032.741211 
	C3826.694336,3032.734131 3827.823730,3031.750977 3830.271729,3030.608154 
	C3828.064941,3026.666748 3826.184082,3022.625000 3823.707520,3018.989014 
	C3795.932129,2978.207764 3770.486816,2936.022949 3747.551514,2892.342041 
	C3717.102295,2834.349365 3691.908203,2774.279297 3678.053223,2710.004395 
	C3669.282471,2669.316895 3666.312500,2628.258301 3675.355469,2587.142090 
	C3692.908203,2507.333252 3741.396729,2455.491699 3818.497559,2429.752686 
	C3823.475098,2428.091553 3828.435547,2426.378662 3833.404053,2424.689941 
	C3852.574463,2423.993408 3871.577393,2421.037109 3890.939209,2422.798828 
	C3964.005371,2429.447266 4020.000244,2463.287842 4058.203613,2526.132812 
	C4061.299316,2531.225342 4064.220703,2536.424072 4068.292725,2544.121826 
	C4072.704590,2553.811035 4075.916260,2561.017334 4079.445557,2568.063965 
	C4081.111572,2571.390625 4083.385986,2574.412109 4085.577637,2577.876953 
	C4091.296387,2575.379150 4096.190918,2573.511963 4100.841309,2571.162598 
	C4119.701172,2561.634033 4139.582520,2554.978271 4159.989746,2549.753906 
	C4166.920410,2547.979248 4173.862793,2546.248291 4180.799805,2544.497559 
	C4190.120117,2544.302979 4199.440430,2543.956543 4208.761230,2543.937500 
	C4281.453125,2543.788818 4354.622070,2585.470947 4389.916016,2649.784180 
	C4427.539062,2718.340332 4425.639648,2787.563232 4387.368652,2855.543213 
	C4371.526855,2883.682861 4349.908203,2907.241211 4325.428711,2928.182373 
	C4282.557617,2964.857422 4233.786133,2991.953857 4183.095703,3015.974365 
	C4174.298340,3020.143066 4164.596191,3022.693359 4157.129395,3028.647705 
	C4157.436523,3033.651367 4160.679199,3032.785645 4162.961426,3032.910645 
	C4167.611816,3033.165283 4172.283691,3033.061279 4176.946777,3033.061279 
	C4452.755371,3033.058105 4728.563965,3033.050537 5006.186523,3032.521729 
	C5008.000000,3040.166748 5008.000000,3048.333252 5008.000000,3058.250000 
z"/>
<path fill="#F4F4F4" opacity="1.000000" stroke="none" 
	d="
M2943.986084,3032.222900 
	C2909.220947,3032.480225 2874.455566,3032.737793 2837.851562,3032.593750 
	C2835.742432,3027.812256 2833.772217,3024.563232 2829.572998,3022.993652 
	C2823.356689,3020.669922 2817.086182,3018.492920 2810.856445,3016.204346 
	C2772.842773,3002.241943 2734.067139,2990.021729 2697.017822,2973.849121 
	C2650.703613,2953.632080 2605.314941,2931.112305 2560.455322,2907.800049 
	C2522.741699,2888.200684 2487.804932,2863.777588 2453.664307,2838.463379 
	C2440.913818,2829.009277 2429.494629,2817.766846 2417.391846,2807.429199 
	C2412.362549,2803.133301 2407.098877,2799.113281 2402.009521,2794.886230 
	C2398.943604,2792.339844 2395.651367,2789.943604 2393.075684,2786.950928 
	C2381.839600,2773.896484 2370.833984,2760.644043 2359.734131,2747.472412 
	C2355.029541,2741.889648 2349.736084,2736.708496 2345.674316,2730.693848 
	C2324.762451,2699.727783 2306.431396,2667.333252 2295.472168,2631.395996 
	C2289.884766,2613.074463 2285.750000,2594.460449 2283.070557,2575.257568 
	C2280.750977,2558.633789 2280.483887,2542.242676 2280.005127,2525.697266 
	C2279.132568,2495.540283 2285.796631,2466.556152 2293.232422,2437.605469 
	C2301.267334,2406.322021 2314.861572,2377.375244 2332.939209,2351.131592 
	C2353.227051,2321.679443 2375.890381,2294.062500 2405.706299,2272.764893 
	C2424.124023,2259.609131 2442.907715,2247.278564 2462.787842,2236.758057 
	C2490.466553,2222.110596 2520.177979,2212.574463 2550.556396,2205.162842 
	C2553.117920,2204.537842 2555.799805,2204.119629 2558.427979,2204.107910 
	C2569.074463,2204.060303 2579.508301,2201.969727 2589.972656,2200.956299 
	C2607.012695,2199.306396 2624.393799,2201.174316 2641.986328,2203.874512 
	C2638.799316,2207.999268 2635.372559,2210.095703 2631.695312,2211.566406 
	C2615.063232,2218.217529 2598.093750,2224.089844 2581.732178,2231.340332 
	C2529.675293,2254.409668 2486.374756,2288.636230 2451.726074,2333.985596 
	C2430.955811,2361.170166 2414.906982,2390.543457 2403.481201,2422.889160 
	C2391.870605,2455.759521 2387.363770,2489.716064 2384.062012,2524.005615 
	C2382.197998,2543.365479 2388.457520,2562.107178 2389.350342,2581.338867 
	C2389.833984,2591.752686 2392.831543,2602.178467 2395.682129,2612.321045 
	C2399.274902,2625.106201 2403.608398,2637.704102 2408.100342,2650.210938 
	C2415.755371,2671.523438 2425.903809,2691.388428 2438.657959,2710.371338 
	C2457.642334,2738.627197 2478.021973,2765.423096 2502.766602,2788.856934 
	C2514.818848,2800.270752 2526.873535,2811.578613 2539.595215,2822.330811 
	C2556.364990,2836.504395 2573.978516,2849.363037 2591.709473,2862.158447 
	C2610.067871,2875.406738 2630.312744,2885.565430 2649.567139,2897.310791 
	C2672.898193,2911.542969 2696.653564,2924.780273 2721.269043,2936.531250 
	C2736.861084,2943.974121 2752.636963,2951.033447 2768.361572,2958.196289 
	C2783.482422,2965.084229 2798.326416,2972.730713 2813.851318,2978.550781 
	C2848.667236,2991.602783 2883.832031,3003.724365 2918.851807,3016.233154 
	C2925.102295,3018.466309 2931.357422,3020.688232 2937.573730,3023.013428 
	C2941.774902,3024.584961 2943.739990,3027.835693 2943.986084,3032.222900 
z"/>
<path fill="#E0DDDE" opacity="1.000000" stroke="none" 
	d="
M2945.829102,3032.622070 
	C2943.739990,3027.835693 2941.774902,3024.584961 2937.573730,3023.013428 
	C2931.357422,3020.688232 2925.102295,3018.466309 2918.851807,3016.233154 
	C2883.832031,3003.724365 2848.667236,2991.602783 2813.851318,2978.550781 
	C2798.326416,2972.730713 2783.482422,2965.084229 2768.361572,2958.196289 
	C2752.636963,2951.033447 2736.861084,2943.974121 2721.269043,2936.531250 
	C2696.653564,2924.780273 2672.898193,2911.542969 2649.567139,2897.310791 
	C2630.312744,2885.565430 2610.067871,2875.406738 2591.709473,2862.158447 
	C2573.978516,2849.363037 2556.364990,2836.504395 2539.595215,2822.330811 
	C2526.873535,2811.578613 2514.818848,2800.270752 2502.766602,2788.856934 
	C2478.021973,2765.423096 2457.642334,2738.627197 2438.657959,2710.371338 
	C2425.903809,2691.388428 2415.755371,2671.523438 2408.100342,2650.210938 
	C2403.608398,2637.704102 2399.274902,2625.106201 2395.682129,2612.321045 
	C2392.831543,2602.178467 2389.833984,2591.752686 2389.350342,2581.338867 
	C2388.457520,2562.107178 2382.197998,2543.365479 2384.062012,2524.005615 
	C2387.363770,2489.716064 2391.870605,2455.759521 2403.481201,2422.889160 
	C2414.906982,2390.543457 2430.955811,2361.170166 2451.726074,2333.985596 
	C2486.374756,2288.636230 2529.675293,2254.409668 2581.732178,2231.340332 
	C2598.093750,2224.089844 2615.063232,2218.217529 2631.695312,2211.566406 
	C2635.372559,2210.095703 2638.799316,2207.999268 2643.177246,2205.037842 
	C2657.856934,2203.882568 2671.706787,2204.110840 2685.542969,2203.777344 
	C2692.055664,2203.620117 2698.581787,2202.625244 2705.032715,2201.583496 
	C2716.125732,2199.792480 2727.152344,2198.689453 2739.269043,2203.291016 
	C2724.693604,2209.639160 2708.838135,2214.302734 2693.329590,2219.924072 
	C2639.923584,2239.281982 2592.948975,2268.655029 2554.244385,2310.614014 
	C2507.661865,2361.113037 2480.401855,2420.563232 2471.648438,2488.650879 
	C2459.202637,2585.463135 2488.518555,2669.878906 2547.888672,2745.262939 
	C2582.389404,2789.069336 2624.400391,2824.801025 2670.044189,2856.378906 
	C2737.637207,2903.142334 2810.633057,2939.892090 2886.156738,2971.833984 
	C2932.103516,2991.266602 2979.039062,3008.067139 3026.371826,3023.779297 
	C3031.285889,3025.410645 3036.148926,3027.195312 3040.528076,3028.730957 
	C3040.879395,3030.376953 3041.270508,3031.121582 3041.074707,3031.648682 
	C3040.926514,3032.049316 3040.033447,3032.385254 3039.468994,3032.389648 
	C3008.870117,3032.624268 2978.271240,3032.820801 2945.829102,3032.622070 
z"/>
<path fill="#E0DDDE" opacity="1.000000" stroke="none" 
	d="
M3831.431641,2424.398438 
	C3828.435547,2426.378662 3823.475098,2428.091553 3818.497559,2429.752686 
	C3741.396729,2455.491699 3692.908203,2507.333252 3675.355469,2587.142090 
	C3666.312500,2628.258301 3669.282471,2669.316895 3678.053223,2710.004395 
	C3691.908203,2774.279297 3717.102295,2834.349365 3747.551514,2892.342041 
	C3770.486816,2936.022949 3795.932129,2978.207764 3823.707520,3018.989014 
	C3826.184082,3022.625000 3828.064941,3026.666748 3830.271729,3030.608154 
	C3827.823730,3031.750977 3826.694336,3032.734131 3825.558594,3032.741211 
	C3803.573730,3032.879639 3781.588135,3032.903809 3757.638428,3031.106689 
	C3754.425293,3026.200195 3753.563477,3022.902832 3751.864990,3020.115479 
	C3740.149414,3000.887451 3728.788086,2981.412598 3716.286133,2962.703125 
	C3701.875732,2941.137451 3690.120361,2918.105469 3677.876465,2895.381348 
	C3662.778564,2867.359863 3648.805176,2838.734131 3638.202393,2808.564697 
	C3629.203857,2782.960693 3619.651123,2757.540039 3612.583008,2731.321533 
	C3610.189697,2722.443848 3609.635498,2713.086914 3607.745117,2704.052734 
	C3605.313965,2692.432617 3602.436279,2680.904053 3599.639648,2669.363037 
	C3598.709717,2665.524902 3595.488281,2664.552246 3592.076172,2664.037598 
	C3594.254395,2657.857178 3596.177002,2651.572021 3598.650879,2645.512451 
	C3620.413574,2592.207275 3639.952637,2538.166016 3655.698242,2480.848145 
	C3665.477539,2478.083496 3671.147705,2473.809082 3676.976318,2469.213867 
	C3686.274658,2461.882568 3696.008789,2454.936035 3706.243164,2449.009033 
	C3715.361084,2443.729004 3725.271484,2439.711670 3735.094971,2435.796143 
	C3740.797363,2433.523438 3743.631592,2429.921143 3744.061279,2424.048828 
	C3772.527100,2424.068115 3800.993164,2424.087402 3831.431641,2424.398438 
z"/>
<path fill="#E0DDDE" opacity="1.000000" stroke="none" 
	d="
M3299.647461,1996.577637 
	C3288.768555,1999.866333 3275.903076,2002.804199 3263.043945,2005.770264 
	C3164.273682,2028.552856 3093.369873,2087.387939 3044.663086,2174.804932 
	C3031.712402,2198.048340 3020.612305,2222.172119 3011.607666,2247.244141 
	C3010.089844,2251.470459 3007.890625,2255.452148 3005.477539,2260.695068 
	C2974.662354,2244.594482 2944.375244,2229.595215 2912.105957,2217.977783 
	C2915.484863,2212.287109 2919.295654,2208.523682 2921.853027,2204.044678 
	C2926.457764,2195.981201 2930.258301,2187.461426 2934.489014,2179.180420 
	C2948.734131,2151.297607 2967.211914,2126.223389 2987.677490,2102.791992 
	C3001.590820,2086.862061 3016.929443,2072.079102 3034.404541,2059.752930 
	C3065.519775,2037.805054 3098.580078,2020.105957 3135.982666,2011.344482 
	C3144.982422,2009.236328 3153.786133,2006.291992 3162.681641,2003.737549 
	C3166.429199,2002.661499 3167.589355,1999.647949 3168.293457,1996.285522 
	C3211.416748,1996.270264 3254.540039,1996.255005 3299.647461,1996.577637 
z"/>
<path fill="#F4F4F4" opacity="1.000000" stroke="none" 
	d="
M3166.424561,1996.182983 
	C3167.589355,1999.647949 3166.429199,2002.661499 3162.681641,2003.737549 
	C3153.786133,2006.291992 3144.982422,2009.236328 3135.982666,2011.344482 
	C3098.580078,2020.105957 3065.519775,2037.805054 3034.404541,2059.752930 
	C3016.929443,2072.079102 3001.590820,2086.862061 2987.677490,2102.791992 
	C2967.211914,2126.223389 2948.734131,2151.297607 2934.489014,2179.180420 
	C2930.258301,2187.461426 2926.457764,2195.981201 2921.853027,2204.044678 
	C2919.295654,2208.523682 2915.484863,2212.287109 2910.797852,2217.208496 
	C2886.397217,2213.134521 2863.438232,2208.225342 2839.058594,2202.444580 
	C2840.259277,2198.669434 2843.602783,2196.150635 2845.386230,2192.801270 
	C2859.115723,2167.019043 2874.777344,2142.498779 2892.389648,2119.210449 
	C2893.987061,2117.097900 2895.326416,2114.708252 2897.231201,2112.922852 
	C2916.083740,2095.250732 2932.898438,2075.592041 2953.616699,2059.662598 
	C2972.327148,2045.276611 2993.160156,2035.435181 3014.022949,2025.359741 
	C3022.924561,2021.060669 3032.707764,2018.629883 3041.861084,2014.801758 
	C3064.082031,2005.508667 3087.623047,2002.932373 3111.190918,1999.746948 
	C3128.961182,1997.345215 3146.610596,1995.090576 3166.424561,1996.182983 
z"/>
<path fill="#424040" opacity="1.000000" stroke="none" 
	d="
M4515.603516,2288.973877 
	C4532.273438,2294.350586 4547.378418,2299.224854 4562.483398,2304.099365 
	C4562.380859,2304.947021 4562.277832,2305.794678 4562.175293,2306.642334 
	C4538.879883,2308.772705 4515.584473,2310.903076 4491.129395,2313.139648 
	C4490.401367,2317.647949 4489.111816,2321.992920 4489.103516,2326.340820 
	C4489.072754,2342.331543 4489.478027,2358.322998 4489.694336,2374.314453 
	C4489.746094,2378.150391 4489.702637,2381.987549 4488.520508,2386.028320 
	C4476.565918,2365.283203 4469.489746,2342.622314 4458.298828,2320.618164 
	C4434.360352,2325.776123 4412.153809,2336.538574 4386.722168,2342.938477 
	C4403.719238,2323.614258 4424.415527,2310.420654 4441.950195,2291.980957 
	C4428.798828,2271.697754 4413.286133,2253.530762 4398.950195,2232.403564 
	C4405.076172,2232.023438 4408.268555,2235.599854 4411.872559,2237.488281 
	C4416.579590,2239.954834 4421.008789,2242.948242 4425.564941,2245.703369 
	C4429.552734,2248.114502 4433.554199,2250.503418 4437.542969,2252.913086 
	C4442.101562,2255.667480 4446.627930,2258.476807 4451.215820,2261.181396 
	C4455.097656,2263.469971 4459.048340,2265.643311 4463.680664,2268.271729 
	C4472.659668,2258.082275 4479.246582,2247.333740 4486.641113,2237.220459 
	C4493.614258,2227.683594 4499.867188,2217.574219 4509.993652,2206.137207 
	C4503.902832,2233.111084 4498.627441,2256.473633 4493.211426,2280.459717 
	C4500.167969,2284.706543 4507.084961,2286.631348 4515.603516,2288.973877 
z"/>
<path fill="#424040" opacity="1.000000" stroke="none" 
	d="
M4678.005371,2869.458984 
	C4660.552734,2855.562256 4644.040039,2842.196045 4626.626953,2828.100830 
	C4607.551758,2842.913818 4594.229004,2863.033691 4574.675781,2879.531982 
	C4580.857910,2855.516846 4591.919434,2835.076904 4598.778809,2812.072021 
	C4579.568359,2798.920654 4556.965332,2792.499268 4537.469727,2780.721436 
	C4537.589355,2779.617432 4537.489258,2778.902588 4537.775879,2778.415039 
	C4537.998535,2778.036621 4538.712891,2777.732422 4539.193359,2777.752441 
	C4560.437988,2778.625488 4581.680664,2779.542236 4602.924805,2780.425293 
	C4603.569336,2780.452148 4604.226074,2780.175049 4606.092773,2779.787109 
	C4612.778809,2757.385986 4611.421875,2733.081299 4618.040039,2707.738525 
	C4624.799805,2732.187012 4631.012207,2754.656738 4637.478516,2778.043945 
	C4661.025391,2777.240967 4683.058105,2769.012695 4706.175293,2767.196777 
	C4707.037598,2773.057617 4701.598633,2773.189941 4699.044434,2774.973633 
	C4687.066406,2783.338867 4674.572754,2790.962891 4662.330566,2798.954346 
	C4658.536133,2801.431152 4654.953613,2804.232666 4650.298340,2807.588867 
	C4652.998047,2813.508789 4655.162109,2818.908203 4657.853027,2824.030762 
	C4665.871094,2839.296143 4674.099609,2854.451172 4682.169434,2869.689453 
	C4682.229492,2869.802490 4681.256836,2870.761475 4680.719238,2870.810547 
	C4680.157715,2870.862061 4679.539551,2870.289551 4678.005371,2869.458984 
z"/>
<path fill="#424040" opacity="1.000000" stroke="none" 
	d="
M2940.800049,1326.848145 
	C2942.695312,1332.916992 2944.200439,1337.287354 2946.058594,1342.682373 
	C2967.873535,1339.014648 2989.373291,1335.399902 3011.215332,1331.727661 
	C3011.033447,1332.192871 3011.097412,1332.029053 3011.161621,1331.865234 
	C3010.638184,1332.018188 3010.014893,1332.037720 3009.607178,1332.344116 
	C3003.848145,1336.670166 2998.316162,1341.330566 2992.339111,1345.327515 
	C2980.763428,1353.068359 2968.941406,1360.441162 2956.422363,1368.479736 
	C2963.711426,1389.084229 2977.010254,1405.972778 2985.625977,1428.204834 
	C2966.116211,1415.293091 2951.964111,1399.555420 2933.330566,1387.467529 
	C2925.804932,1395.226440 2918.555664,1402.914917 2911.065430,1410.361206 
	C2904.020752,1417.363892 2896.721680,1424.110352 2889.220703,1431.268799 
	C2886.386475,1427.772461 2889.655029,1424.650879 2890.866943,1421.497437 
	C2895.637695,1409.082520 2900.614014,1396.746582 2905.392334,1384.334473 
	C2906.796143,1380.687744 2907.796875,1376.886230 2909.240234,1372.342407 
	C2891.714355,1360.160156 2870.845459,1354.770630 2850.643066,1340.754761 
	C2874.483643,1342.146240 2894.744629,1343.328735 2916.182373,1344.579956 
	C2922.165039,1323.693970 2922.510010,1302.553955 2927.428711,1282.012573 
	C2933.945801,1295.966675 2936.487549,1310.766846 2940.800049,1326.848145 
z"/>
<path fill="#424040" opacity="1.000000" stroke="none" 
	d="
M2215.526855,2685.135986 
	C2221.633057,2690.321045 2226.678467,2694.494141 2232.668457,2699.448730 
	C2248.108887,2684.611084 2262.874756,2670.421631 2279.677246,2654.275146 
	C2277.122070,2666.879883 2271.718506,2675.537354 2268.006104,2684.771240 
	C2264.052734,2694.603760 2259.664795,2704.261963 2254.958496,2715.174805 
	C2273.880371,2725.452393 2292.213379,2735.410156 2310.546387,2745.367920 
	C2310.364014,2746.029541 2310.181641,2746.691162 2309.999268,2747.352539 
	C2289.713867,2745.593262 2269.428223,2743.833984 2248.487549,2742.017822 
	C2240.662109,2761.903076 2241.934570,2783.196533 2234.094482,2805.518311 
	C2228.897461,2783.214844 2224.348633,2763.692871 2219.655518,2743.552246 
	C2198.335205,2743.277588 2178.579590,2749.364990 2156.131104,2750.301514 
	C2172.802734,2736.415527 2191.778320,2729.480225 2208.610352,2716.754395 
	C2207.401611,2712.933594 2206.518555,2708.510254 2204.656250,2704.547119 
	C2197.884033,2690.134766 2190.784180,2675.876465 2183.907471,2661.763916 
	C2184.685547,2660.887207 2185.014404,2660.184082 2185.479248,2660.077881 
	C2186.041992,2659.949463 2186.885986,2660.133545 2187.323486,2660.511719 
	C2196.395264,2668.354248 2205.426270,2676.243652 2215.526855,2685.135986 
z"/>
<path fill="#424040" opacity="1.000000" stroke="none" 
	d="
M3826.085205,2249.918457 
	C3821.202637,2243.738281 3825.070312,2236.984619 3825.779785,2230.244385 
	C3826.750732,2221.019531 3828.270996,2211.852295 3829.741699,2201.331299 
	C3813.338135,2197.160889 3797.676758,2193.179443 3782.015625,2189.197754 
	C3782.042236,2188.415771 3782.069092,2187.633789 3782.095947,2186.851807 
	C3797.572510,2184.069336 3813.049072,2181.287109 3829.115234,2178.398682 
	C3832.505371,2161.661377 3825.055176,2145.461426 3828.870605,2126.833252 
	C3837.237549,2142.794434 3844.522217,2156.690918 3852.250000,2171.432129 
	C3868.887695,2166.786621 3883.012207,2158.012451 3900.977539,2152.541992 
	C3890.156982,2167.854736 3876.130371,2177.150146 3866.563965,2190.625977 
	C3875.393799,2205.518555 3888.931396,2215.675049 3899.197021,2232.252441 
	C3882.117676,2223.885010 3867.902588,2216.920898 3852.944580,2209.592773 
	C3841.389160,2221.099609 3835.720215,2236.288330 3826.085205,2249.918457 
z"/>
<path fill="#424040" opacity="1.000000" stroke="none" 
	d="
M3446.361328,1535.688599 
	C3448.791016,1538.597290 3450.344971,1540.652710 3451.948486,1542.773315 
	C3450.676758,1543.331787 3449.398193,1544.407104 3448.731201,1544.109863 
	C3437.250732,1538.995483 3425.845947,1533.711670 3413.234131,1527.918457 
	C3405.797363,1539.791382 3398.548340,1551.364624 3389.408447,1565.956421 
	C3388.393555,1548.957520 3394.202148,1535.834229 3392.185303,1520.958252 
	C3379.318115,1517.903076 3365.933594,1514.725098 3349.689697,1510.868164 
	C3365.280518,1504.423706 3380.065918,1505.684448 3393.599121,1499.954102 
	C3392.491455,1485.629883 3391.455322,1472.232178 3390.255615,1456.719849 
	C3401.232178,1468.426514 3404.301025,1482.770752 3413.961426,1494.229614 
	C3426.454102,1489.150513 3439.088867,1484.013672 3451.723389,1478.876831 
	C3452.188477,1479.549805 3452.653809,1480.222900 3453.118896,1480.895996 
	C3444.278564,1490.468140 3435.438232,1500.040283 3426.139404,1510.109009 
	C3430.031494,1520.454956 3439.235840,1526.544067 3446.361328,1535.688599 
z"/>
<path fill="#424040" opacity="1.000000" stroke="none" 
	d="
M2344.614746,2083.092773 
	C2338.636230,2092.017334 2333.472168,2099.602051 2328.308105,2107.186768 
	C2327.448975,2106.850830 2326.589600,2106.514893 2325.730469,2106.178955 
	C2327.771729,2094.438965 2329.812744,2082.698975 2331.990967,2070.169189 
	C2320.312744,2062.826660 2306.492188,2062.788330 2292.504883,2056.271973 
	C2306.891113,2053.999023 2319.317383,2052.035889 2332.115967,2050.013916 
	C2336.296631,2037.139160 2331.041748,2024.550659 2333.232422,2012.138062 
	C2340.037109,2014.287109 2339.959961,2021.460938 2342.873291,2026.396729 
	C2346.193359,2032.020508 2348.651123,2038.153320 2351.806641,2044.739014 
	C2366.208496,2043.143433 2378.028809,2035.009155 2392.816406,2032.168091 
	C2382.673096,2042.848999 2373.585938,2052.417969 2363.472900,2063.066895 
	C2370.435303,2072.642334 2378.017090,2083.069824 2388.106445,2096.945801 
	C2372.976318,2088.713623 2361.599121,2082.523438 2350.772949,2076.632812 
	C2348.304443,2078.998047 2346.866943,2080.375488 2344.614746,2083.092773 
z"/>
<path fill="#424040" opacity="1.000000" stroke="none" 
	d="
M4213.714844,1417.031860 
	C4207.557617,1420.881348 4201.400391,1424.730835 4195.029785,1428.713867 
	C4196.141113,1441.391235 4205.533691,1450.449707 4208.083008,1463.961792 
	C4196.733887,1457.245605 4189.961426,1446.514404 4178.945801,1440.234497 
	C4170.296875,1448.169678 4162.087891,1455.701660 4153.371582,1463.698730 
	C4150.196289,1459.496094 4153.433594,1456.527588 4154.756348,1453.425659 
	C4157.862305,1446.141724 4161.052734,1438.893677 4164.488281,1430.988281 
	C4156.732910,1421.414551 4143.548828,1419.873169 4133.725098,1409.486816 
	C4147.162109,1410.637939 4157.995605,1411.566040 4169.219238,1412.527588 
	C4174.592773,1400.899414 4174.531738,1388.778076 4178.589844,1374.357056 
	C4182.308105,1388.500854 4185.279785,1399.805054 4188.421387,1411.754517 
	C4192.295898,1411.754517 4195.528320,1411.754517 4201.937500,1411.818481 
	C4210.108887,1412.121826 4215.103027,1412.361328 4220.097168,1412.600830 
	C4219.098145,1413.546143 4218.099609,1414.491455 4215.315918,1416.337402 
	C4213.531250,1417.238037 4213.714844,1417.031860 4213.714844,1417.031860 
z"/>
<path fill="#424040" opacity="1.000000" stroke="none" 
	d="
M3849.557129,1434.039551 
	C3850.927979,1439.828125 3852.432861,1444.423340 3852.158203,1448.909424 
	C3851.379395,1461.612427 3842.709473,1470.856323 3829.965332,1473.608521 
	C3817.785889,1476.238525 3805.733887,1470.642090 3799.764648,1459.584351 
	C3793.717285,1448.382080 3795.571777,1435.718994 3804.598145,1426.574951 
	C3812.908936,1418.155518 3827.260010,1415.689819 3837.664307,1421.876099 
	C3842.025146,1424.468994 3845.177246,1429.094727 3849.557129,1434.039551 
z"/>
<path fill="#424040" opacity="1.000000" stroke="none" 
	d="
M2776.358398,1918.997559 
	C2780.144775,1909.307617 2784.431641,1900.440918 2788.979004,1891.035156 
	C2780.260254,1884.927002 2772.306641,1879.354614 2763.257568,1873.014893 
	C2774.598633,1869.657349 2783.685547,1876.331421 2794.337891,1875.323364 
	C2801.461914,1867.107910 2798.479736,1853.886719 2806.665283,1845.235107 
	C2808.237305,1855.334717 2809.761963,1865.130981 2811.353027,1875.353271 
	C2822.297363,1878.930908 2833.008545,1874.336914 2845.259033,1877.456909 
	C2834.985107,1882.935913 2826.033203,1887.709717 2816.078369,1893.018433 
	C2819.471191,1903.220825 2822.725586,1913.006226 2827.270020,1926.671997 
	C2817.384277,1916.875732 2810.370850,1909.925659 2802.438965,1902.065796 
	C2793.816162,1908.050659 2785.337402,1913.935669 2776.358398,1918.997559 
z"/>
<path fill="#F4F4F4" opacity="1.000000" stroke="none" 
	d="
M3742.181396,2424.013184 
	C3743.631592,2429.921143 3740.797363,2433.523438 3735.094971,2435.796143 
	C3725.271484,2439.711670 3715.361084,2443.729004 3706.243164,2449.009033 
	C3696.008789,2454.936035 3686.274658,2461.882568 3676.976318,2469.213867 
	C3671.147705,2473.809082 3665.477539,2478.083496 3656.650391,2479.707764 
	C3658.257568,2462.000732 3661.338867,2444.239502 3664.962891,2425.109131 
	C3690.437500,2423.819092 3715.369629,2423.898438 3742.181396,2424.013184 
z"/>
<path fill="#424040" opacity="1.000000" stroke="none" 
	d="
M4807.610352,2343.822754 
	C4807.818359,2342.094238 4808.267578,2341.487305 4808.243652,2340.899658 
	C4808.229492,2340.560059 4807.453613,2340.251465 4807.020508,2339.928955 
	C4808.850098,2341.291260 4811.153320,2342.312744 4812.422363,2344.077881 
	C4816.658203,2349.970703 4820.523438,2356.129883 4824.857910,2362.681641 
	C4833.819824,2358.626709 4842.061523,2354.897461 4850.303223,2351.167969 
	C4850.815918,2351.745117 4851.328125,2352.322266 4851.840820,2352.899170 
	C4846.267578,2359.789795 4840.694336,2366.680420 4834.429688,2374.425781 
	C4841.210449,2382.026367 4847.747559,2389.353760 4855.738281,2398.310791 
	C4845.072266,2394.538330 4836.329102,2391.445801 4826.285645,2387.893555 
	C4821.283691,2396.333984 4816.363281,2404.636475 4809.746582,2415.802246 
	C4810.350098,2403.901123 4810.798828,2395.059814 4811.254395,2386.085205 
	C4803.780762,2378.320557 4793.308594,2381.871582 4783.271973,2377.777100 
	C4787.306641,2375.715576 4790.198730,2373.777588 4793.382324,2372.713135 
	C4798.935059,2370.856445 4804.667480,2369.538330 4810.535645,2367.937256 
	C4809.457031,2359.337646 4808.554688,2352.145020 4807.610352,2343.822754 
z"/>
<path fill="#424040" opacity="1.000000" stroke="none" 
	d="
M3335.608887,1072.001709 
	C3338.208740,1074.675049 3340.465576,1076.295288 3342.860840,1076.535645 
	C3349.313232,1077.182617 3355.824951,1077.241211 3363.177734,1077.572144 
	C3361.046875,1083.852295 3355.856201,1083.566284 3351.936523,1085.193604 
	C3348.267578,1086.717041 3344.626709,1088.307251 3340.463867,1090.085938 
	C3336.584961,1100.082153 3345.604004,1108.825073 3343.790527,1119.691284 
	C3337.335693,1112.530273 3331.305908,1105.841064 3324.672852,1098.482422 
	C3316.651855,1103.189087 3309.323486,1107.489380 3300.821533,1112.478271 
	C3301.349365,1102.162231 3311.257812,1097.208862 3312.364014,1086.478882 
	C3306.551514,1081.171753 3299.895508,1075.094604 3291.013184,1066.984497 
	C3302.210205,1069.395508 3310.781738,1071.241089 3320.562256,1073.347046 
	C3324.401855,1065.023193 3328.093262,1057.020264 3333.691650,1044.883545 
	C3335.082275,1056.326660 3335.007324,1063.346924 3335.608887,1072.001709 
z"/>
<path fill="#424040" opacity="1.000000" stroke="none" 
	d="
M3964.011963,1806.938721 
	C3973.945557,1805.648315 3982.291504,1803.709961 3993.248047,1801.165405 
	C3984.649658,1808.932739 3977.911865,1815.019287 3970.349609,1821.850586 
	C3975.149658,1830.056885 3979.755127,1837.929932 3986.244385,1849.023682 
	C3975.339844,1842.456299 3967.362305,1837.651733 3959.154541,1832.708496 
	C3952.561768,1840.248535 3946.607178,1847.058594 3938.590332,1856.227539 
	C3941.163330,1844.302856 3943.041260,1835.599976 3945.083496,1826.134277 
	C3936.344238,1822.079590 3928.275146,1818.335815 3916.547852,1812.894775 
	C3929.138428,1812.157471 3937.557373,1811.664429 3946.993408,1811.111816 
	C3950.163086,1801.766113 3947.910400,1792.333374 3950.088135,1783.414795 
	C3954.312988,1784.125610 3954.854736,1788.164307 3956.231934,1791.660645 
	C3958.172363,1796.586182 3960.348877,1801.418823 3964.011963,1806.938721 
z"/>
<path fill="#424040" opacity="1.000000" stroke="none" 
	d="
M3245.160645,1863.196533 
	C3253.552979,1862.826904 3259.624023,1864.912476 3264.645996,1869.923218 
	C3274.708740,1879.963989 3274.687988,1895.823975 3264.543213,1905.624634 
	C3255.058594,1914.787598 3239.888184,1914.907227 3230.256104,1905.894775 
	C3220.279297,1896.560181 3219.712402,1879.553833 3229.862549,1870.252197 
	C3233.532959,1866.888550 3239.069580,1865.560913 3245.160645,1863.196533 
z"/>
<path fill="#424040" opacity="1.000000" stroke="none" 
	d="
M4190.009766,2157.215820 
	C4195.018555,2155.160889 4198.734375,2153.090576 4202.573242,2152.829346 
	C4213.461914,2152.088623 4224.202148,2159.484619 4227.540527,2169.226562 
	C4230.865234,2178.927246 4227.955078,2190.155518 4220.449219,2196.587646 
	C4211.992188,2203.834961 4200.213379,2204.772217 4190.742676,2198.951904 
	C4181.671875,2193.377441 4176.818359,2181.892090 4180.273926,2171.149414 
	C4181.814453,2166.359619 4185.862793,2162.375732 4190.009766,2157.215820 
z"/>
<path fill="#424040" opacity="1.000000" stroke="none" 
	d="
M2171.523193,2311.496582 
	C2166.262939,2312.562988 2162.264160,2313.735596 2158.406738,2313.378906 
	C2146.922607,2312.318115 2138.334717,2304.354004 2136.304199,2293.678711 
	C2134.231201,2282.782227 2139.322266,2272.351074 2149.341797,2266.966797 
	C2159.158447,2261.691406 2170.619629,2263.486328 2178.600586,2271.548096 
	C2185.970459,2278.992676 2188.005127,2291.678467 2182.461426,2301.030762 
	C2180.184814,2304.871582 2176.107422,2307.644775 2171.523193,2311.496582 
z"/>
<path fill="#424040" opacity="1.000000" stroke="none" 
	d="
M4675.409180,1709.101807 
	C4672.049805,1712.059937 4669.714844,1714.259033 4666.811035,1716.993408 
	C4671.588379,1724.616577 4675.949219,1731.575439 4682.721191,1742.381958 
	C4671.629395,1735.959229 4664.492188,1731.826660 4656.770020,1727.354980 
	C4650.645996,1734.224609 4645.034668,1740.519775 4637.157227,1749.356567 
	C4639.756836,1738.199219 4641.599609,1730.289429 4643.732422,1721.136475 
	C4635.984375,1717.642578 4628.364746,1714.206787 4619.776367,1710.333984 
	C4627.724609,1705.558716 4636.413086,1709.296631 4644.450684,1705.784180 
	C4649.621582,1698.811646 4645.440430,1689.524658 4649.265137,1679.719238 
	C4653.135254,1688.114990 4656.436523,1695.276978 4660.286133,1703.628784 
	C4667.652832,1701.984741 4674.979492,1700.349365 4682.376953,1698.698486 
	C4684.156250,1705.489990 4678.182617,1705.348145 4675.409180,1709.101807 
z"/>
<path fill="#424040" opacity="1.000000" stroke="none" 
	d="
M4344.491211,1812.644043 
	C4341.395020,1816.943115 4339.258301,1820.714111 4336.024414,1822.681274 
	C4324.855957,1829.476074 4310.602539,1825.474487 4305.041016,1814.544800 
	C4299.390137,1803.439941 4304.678223,1788.652222 4315.857422,1784.297241 
	C4328.915527,1779.210449 4341.846680,1785.676636 4345.322266,1799.579590 
	C4346.233398,1803.223755 4345.127930,1807.372192 4344.491211,1812.644043 
z"/>
<path fill="#E0DDDE" opacity="1.000000" stroke="none" 
	d="
M4178.877930,2544.233887 
	C4173.862793,2546.248291 4166.920410,2547.979248 4159.989746,2549.753906 
	C4139.582520,2554.978271 4119.701172,2561.634033 4100.841309,2571.162598 
	C4096.190918,2573.511963 4091.296387,2575.379150 4085.577637,2577.876953 
	C4083.385986,2574.412109 4081.111572,2571.390625 4079.445557,2568.063965 
	C4075.916260,2561.017334 4072.704590,2553.811035 4069.105469,2545.290527 
	C4104.884277,2543.930664 4140.919922,2543.950439 4178.877930,2544.233887 
z"/>
<path fill="#424040" opacity="1.000000" stroke="none" 
	d="
M4711.845215,2072.277832 
	C4711.165527,2067.002197 4710.080078,2062.883789 4710.872559,2059.166016 
	C4713.666504,2046.052612 4725.531738,2039.228516 4738.048828,2042.960815 
	C4750.990723,2046.819580 4757.292480,2061.233643 4751.417480,2073.541260 
	C4746.242188,2084.383545 4731.641113,2088.678955 4720.529785,2082.096924 
	C4717.260254,2080.159912 4715.015625,2076.492920 4711.845215,2072.277832 
z"/>
<path fill="#424040" opacity="1.000000" stroke="none" 
	d="
M3714.090820,1765.082764 
	C3715.258057,1770.014526 3716.589844,1774.116577 3715.763916,1777.724365 
	C3713.846191,1786.099854 3706.275146,1790.118896 3697.368896,1788.474121 
	C3690.268799,1787.162964 3684.737549,1779.895386 3685.267090,1772.573486 
	C3685.843750,1764.597900 3693.223389,1757.266357 3701.252930,1758.209717 
	C3705.430420,1758.700439 3709.278564,1761.998535 3714.090820,1765.082764 
z"/>
<path fill="#424040" opacity="1.000000" stroke="none" 
	d="
M3642.994141,1168.772583 
	C3649.553955,1171.416992 3653.100342,1175.126099 3654.494629,1180.663940 
	C3656.248779,1187.632080 3652.208740,1195.337280 3645.208252,1198.518188 
	C3639.099609,1201.293823 3632.064941,1199.516846 3627.307373,1193.996582 
	C3622.916748,1188.901855 3622.398926,1181.062012 3626.234131,1175.597168 
	C3629.950195,1170.302124 3635.011230,1167.694580 3642.994141,1168.772583 
z"/>
<path fill="#424040" opacity="1.000000" stroke="none" 
	d="
M2555.818848,1593.215454 
	C2557.959717,1588.621460 2559.312744,1584.485962 2562.154541,1582.205811 
	C2568.717529,1576.940063 2578.388916,1578.505249 2583.397217,1584.772095 
	C2588.338867,1590.955444 2588.190674,1598.907227 2583.025635,1604.737305 
	C2577.787598,1610.649902 2567.905273,1611.627441 2561.432373,1606.609009 
	C2557.583008,1603.624756 2555.659668,1599.473755 2555.818848,1593.215454 
z"/>
<path fill="#424040" opacity="1.000000" stroke="none" 
	d="
M4873.866699,2836.229980 
	C4881.122070,2830.358643 4887.029785,2830.855713 4892.370605,2836.593506 
	C4895.825195,2840.305176 4896.589844,2844.661621 4894.490723,2849.394287 
	C4892.139160,2854.695801 4887.787598,2857.105713 4881.741211,2856.611328 
	C4876.558105,2856.187500 4872.613770,2853.576416 4871.731445,2848.626953 
	C4871.085449,2845.004639 4872.407715,2841.031494 4873.866699,2836.229980 
z"/>
<path fill="#FB3B50" opacity="1.000000" stroke="none" 
	d="
M4220.812988,1412.563477 
	C4215.103027,1412.361328 4210.108887,1412.121826 4203.777344,1411.746826 
	C4209.314453,1410.247803 4216.188965,1408.884521 4222.566895,1407.619751 
	C4223.574707,1409.147949 4224.194824,1409.869873 4224.100586,1409.979736 
	C4223.317871,1410.892578 4222.403320,1411.692139 4220.812988,1412.563477 
z"/>
<path fill="#FB3B50" opacity="1.000000" stroke="none" 
	d="
M4213.758301,1417.193726 
	C4213.714844,1417.031860 4213.531250,1417.238037 4213.527344,1417.364380 
	C4213.522949,1417.490723 4213.801758,1417.355591 4213.758301,1417.193726 
z"/>
<path fill="#E0DDDE" opacity="1.000000" stroke="none" 
	d="
M3252.203857,3063.309570 
	C3250.738525,3060.181152 3250.821533,3057.677002 3247.556396,3056.683105 
	C3244.438477,3055.734375 3241.299561,3054.854492 3237.110352,3051.655273 
	C3235.873291,3039.779541 3242.902588,3033.690918 3247.690674,3026.804443 
	C3263.964355,3003.401367 3281.460693,2980.835449 3297.376953,2957.200195 
	C3314.056641,2932.430908 3329.246826,2906.664062 3345.457520,2881.572266 
	C3369.988525,2843.601562 3392.656982,2804.484375 3413.402344,2764.414062 
	C3439.681396,2713.656006 3466.182861,2662.957764 3485.953125,2609.017090 
	C3500.578125,2569.116455 3516.362549,2529.714355 3526.044434,2488.171387 
	C3534.765625,2450.751221 3544.168213,2413.501709 3544.129395,2374.696777 
	C3544.126221,2371.433105 3545.249756,2368.181396 3545.672607,2364.901367 
	C3546.516602,2358.350586 3547.980469,2351.771973 3547.874268,2345.226074 
	C3547.508057,2322.697754 3543.144775,2300.557617 3540.766602,2278.237305 
	C3537.678467,2249.255615 3527.598145,2222.699707 3516.015625,2196.694580 
	C3503.522705,2168.645508 3486.696533,2143.152588 3464.011963,2121.906006 
	C3452.833252,2111.436279 3443.128906,2099.076416 3430.886475,2090.132812 
	C3412.738525,2076.874756 3394.320801,2063.841309 3373.508545,2054.382812 
	C3358.309082,2047.475342 3342.909912,2041.435547 3327.085449,2036.396484 
	C3321.576416,2034.642212 3317.430420,2032.160156 3315.544678,2026.569458 
	C3332.588135,2021.945679 3350.030273,2023.360962 3367.114502,2024.797241 
	C3500.051025,2035.972900 3600.935303,2129.196533 3630.935059,2246.354492 
	C3641.737549,2288.540039 3644.849609,2331.360352 3641.511230,2375.106445 
	C3635.978027,2447.613525 3616.632568,2516.521484 3591.910645,2584.288574 
	C3554.526611,2686.765137 3503.553711,2782.505371 3446.804932,2875.319092 
	C3410.289062,2935.041260 3371.296387,2993.112061 3328.947266,3048.893311 
	C3326.584961,3052.004639 3325.064453,3055.755615 3323.077881,3060.807861 
	C3316.518311,3062.901367 3310.036377,3063.751709 3303.546387,3063.819824 
	C3287.090576,3063.992188 3270.630859,3063.813965 3252.203857,3063.309570 
z"/>
<path fill="#E0DDDE" opacity="1.000000" stroke="none" 
	d="
M4171.455078,2577.241699 
	C4212.896484,2565.506592 4251.963379,2573.604492 4289.135254,2592.696777 
	C4345.171387,2621.479004 4378.485352,2667.366455 4386.727539,2729.945801 
	C4392.222168,2771.666992 4382.031250,2810.577393 4359.645508,2846.167725 
	C4338.763672,2879.367188 4310.767578,2905.679688 4279.079590,2928.303955 
	C4232.790039,2961.353516 4182.564453,2987.254639 4129.669434,3007.642334 
	C4088.150391,3023.645752 4045.728271,3037.297607 4003.863770,3052.427246 
	C3998.767334,3054.268799 3991.702393,3053.343506 3989.387939,3061.514648 
	C3979.124023,3063.195801 3968.514160,3063.759521 3957.900391,3063.837646 
	C3938.593994,3063.979980 3919.285156,3063.833740 3898.082031,3062.321777 
	C3896.341553,3057.416260 3896.791016,3054.073486 3900.565918,3052.688721 
	C3915.481934,3047.217041 3930.375488,3041.678223 3945.368896,3036.424805 
	C3959.701904,3031.403076 3974.244629,3026.970459 3988.519287,3021.793945 
	C4004.741211,3015.910889 4020.946045,3009.912109 4036.843750,3003.216797 
	C4072.405029,2988.239990 4107.700195,2972.716797 4139.750977,2950.752930 
	C4153.947266,2941.024414 4168.787109,2932.241455 4183.159180,2922.761963 
	C4201.092773,2910.933594 4215.422363,2895.036621 4230.148926,2879.716309 
	C4252.053711,2856.929199 4268.516113,2830.623047 4277.785156,2800.223145 
	C4280.479492,2791.386230 4283.350098,2782.234863 4283.728516,2773.127441 
	C4284.944336,2743.874756 4286.000000,2714.445068 4272.327148,2687.082764 
	C4272.036133,2686.500977 4272.128418,2685.717773 4271.809082,2685.162109 
	C4264.889160,2673.106689 4259.751465,2659.420410 4250.617188,2649.368652 
	C4230.563477,2627.301270 4210.615723,2604.441162 4181.791016,2592.797852 
	C4174.727539,2589.944824 4171.669922,2584.573242 4171.455078,2577.241699 
z"/>
<path fill="#F4F4F4" opacity="1.000000" stroke="none" 
	d="
M4169.806641,2577.370117 
	C4171.669922,2584.573242 4174.727539,2589.944824 4181.791016,2592.797852 
	C4210.615723,2604.441162 4230.563477,2627.301270 4250.617188,2649.368652 
	C4259.751465,2659.420410 4264.889160,2673.106689 4271.809082,2685.162109 
	C4272.128418,2685.717773 4272.036133,2686.500977 4272.327148,2687.082764 
	C4286.000000,2714.445068 4284.944336,2743.874756 4283.728516,2773.127441 
	C4283.350098,2782.234863 4280.479492,2791.386230 4277.785156,2800.223145 
	C4268.516113,2830.623047 4252.053711,2856.929199 4230.148926,2879.716309 
	C4215.422363,2895.036621 4201.092773,2910.933594 4183.159180,2922.761963 
	C4168.787109,2932.241455 4153.947266,2941.024414 4139.750977,2950.752930 
	C4107.700195,2972.716797 4072.405029,2988.239990 4036.843750,3003.216797 
	C4020.946045,3009.912109 4004.741211,3015.910889 3988.519287,3021.793945 
	C3974.244629,3026.970459 3959.701904,3031.403076 3945.368896,3036.424805 
	C3930.375488,3041.678223 3915.481934,3047.217041 3900.565918,3052.688721 
	C3896.791016,3054.073486 3896.341553,3057.416260 3896.224121,3062.323242 
	C3892.387207,3062.272705 3888.486084,3061.538086 3883.231689,3063.428711 
	C3883.970947,3060.922119 3886.451416,3058.375000 3884.093994,3054.930908 
	C3879.698486,3048.510254 3875.099121,3042.229248 3871.568359,3033.909180 
	C3882.391602,3027.949707 3892.114990,3023.649658 3902.091797,3020.052490 
	C3932.724365,3009.008301 3963.125000,2997.437012 3991.893066,2982.025635 
	C4003.594238,2975.757324 4014.874756,2968.665039 4026.768066,2962.802979 
	C4050.139160,2951.284180 4070.348145,2934.887207 4092.264404,2921.137451 
	C4100.068848,2916.240479 4107.355469,2910.230225 4113.985840,2903.807129 
	C4128.762695,2889.493652 4143.395508,2875.082764 4155.771484,2858.415283 
	C4169.853027,2839.451416 4179.843750,2818.409912 4186.805664,2796.317871 
	C4191.934570,2780.043945 4192.987305,2762.542480 4192.125000,2745.116699 
	C4191.064941,2723.695801 4186.824219,2703.322998 4178.020020,2683.596436 
	C4168.366211,2661.966553 4155.639648,2642.963379 4137.606445,2627.508545 
	C4130.043945,2621.026855 4122.710938,2614.243164 4115.701660,2607.172119 
	C4113.578613,2605.030518 4112.892090,2601.465332 4111.547852,2598.552246 
	C4129.115234,2588.032471 4148.357422,2582.014648 4169.806641,2577.370117 
z"/>
<path fill="#FFFFFF" opacity="1.000000" stroke="none" 
	d="
M3016.462891,2303.777344 
	C3018.441650,2304.005859 3020.420654,2304.234131 3023.752197,2304.618896 
	C3025.241699,2299.895264 3026.935791,2295.029785 3028.313232,2290.075684 
	C3043.439453,2235.680176 3067.427734,2185.636963 3101.840332,2140.764648 
	C3140.715576,2090.073975 3190.454346,2055.267822 3254.396973,2039.578613 
	C3259.333740,2043.306274 3261.902100,2046.540527 3265.240723,2048.367432 
	C3275.160645,2053.795654 3285.400635,2058.636230 3295.484619,2063.766846 
	C3319.935059,2076.207031 3341.112793,2093.260010 3361.251465,2111.556396 
	C3368.033936,2117.718750 3372.649414,2126.203613 3379.060059,2132.851074 
	C3393.052734,2147.361572 3403.312500,2164.287109 3412.913818,2181.800049 
	C3425.759521,2205.230225 3435.202148,2229.989258 3441.691895,2255.798828 
	C3444.739502,2267.918457 3446.456299,2280.445068 3447.819824,2292.892090 
	C3448.826660,2302.080566 3449.754639,2311.279053 3450.806152,2320.423340 
	C3452.768066,2337.479980 3452.689941,2355.086182 3450.735352,2372.151367 
	C3449.686768,2381.305420 3448.144775,2390.424072 3447.979492,2399.706543 
	C3447.908691,2403.692383 3448.100098,2407.776855 3447.312012,2411.640625 
	C3442.294189,2436.246094 3437.795166,2460.994141 3431.646973,2485.321533 
	C3425.318848,2510.359619 3418.745605,2535.513428 3409.667236,2559.633789 
	C3398.228760,2590.025146 3388.142578,2620.989258 3373.389893,2650.159912 
	C3362.623047,2671.447998 3354.425293,2694.022705 3344.021729,2715.510254 
	C3334.476074,2735.226562 3323.521973,2754.260986 3313.167969,2773.584961 
	C3303.442627,2791.735840 3294.400391,2810.299316 3283.798340,2827.923584 
	C3263.626465,2861.456299 3242.648193,2894.506348 3221.807129,2927.632324 
	C3214.762939,2938.828613 3207.163574,2949.677246 3199.741211,2960.633057 
	C3190.086670,2974.884033 3181.045166,2989.626221 3170.413086,3003.111084 
	C3163.494629,3011.885498 3159.652344,3023.179199 3149.595215,3029.447021 
	C3127.803955,3023.604980 3105.832275,3018.357666 3084.253174,3011.815918 
	C2998.292969,2985.759033 2913.867188,2955.581787 2832.843994,2916.468750 
	C2777.048096,2889.533936 2722.906982,2859.750244 2672.771729,2823.127686 
	C2631.719482,2793.139893 2594.243164,2759.358398 2563.531494,2718.569336 
	C2533.913818,2679.233154 2512.705811,2636.038330 2503.145020,2587.391357 
	C2481.574951,2477.639648 2522.996338,2361.201416 2618.601318,2291.536865 
	C2647.294189,2270.629395 2678.406006,2254.402832 2715.086426,2244.293457 
	C2723.496826,2248.300537 2728.810547,2252.541992 2734.850342,2254.999023 
	C2763.769531,2266.763184 2791.717041,2280.453613 2817.944824,2297.343506 
	C2825.049561,2301.918945 2831.809570,2304.138428 2840.098145,2304.133789 
	C2853.937012,2304.126221 2867.617920,2304.178955 2881.557617,2306.936768 
	C2894.940186,2309.584473 2909.271973,2307.552246 2923.180176,2307.260254 
	C2924.811279,2307.226074 2926.399902,2305.190186 2929.881348,2304.054688 
	C2959.990723,2303.944092 2988.226807,2303.860840 3016.462891,2303.777344 
z"/>
<path fill="#FFFFFF" opacity="1.000000" stroke="none" 
	d="
M4110.154785,2598.909668 
	C4112.892090,2601.465332 4113.578613,2605.030518 4115.701660,2607.172119 
	C4122.710938,2614.243164 4130.043945,2621.026855 4137.606445,2627.508545 
	C4155.639648,2642.963379 4168.366211,2661.966553 4178.020020,2683.596436 
	C4186.824219,2703.322998 4191.064941,2723.695801 4192.125000,2745.116699 
	C4192.987305,2762.542480 4191.934570,2780.043945 4186.805664,2796.317871 
	C4179.843750,2818.409912 4169.853027,2839.451416 4155.771484,2858.415283 
	C4143.395508,2875.082764 4128.762695,2889.493652 4113.985840,2903.807129 
	C4107.355469,2910.230225 4100.068848,2916.240479 4092.264404,2921.137451 
	C4070.348145,2934.887207 4050.139160,2951.284180 4026.768066,2962.802979 
	C4014.874756,2968.665039 4003.594238,2975.757324 3991.893066,2982.025635 
	C3963.125000,2997.437012 3932.724365,3009.008301 3902.091797,3020.052490 
	C3892.114990,3023.649658 3882.391602,3027.949707 3871.015625,3032.574219 
	C3850.878662,3005.652588 3831.460938,2978.596191 3813.846924,2950.412354 
	C3776.714111,2890.996094 3744.828125,2828.893555 3722.257080,2762.331543 
	C3706.532471,2715.959961 3696.116455,2668.722900 3699.612549,2619.303467 
	C3702.366455,2580.375732 3714.990234,2545.207520 3739.851807,2514.810303 
	C3752.606934,2499.215088 3767.512939,2486.051025 3786.978027,2476.941895 
	C3790.609375,2479.885498 3791.957031,2482.524414 3794.111816,2483.807373 
	C3806.274658,2491.050049 3815.402100,2501.647461 3825.354492,2511.346191 
	C3843.704590,2529.228516 3856.298340,2550.963379 3866.671875,2574.034424 
	C3871.546387,2584.875732 3875.214355,2596.263672 3879.341064,2607.436279 
	C3884.573975,2621.603027 3887.319824,2623.855469 3902.497070,2623.933594 
	C3929.727539,2624.073730 3956.959961,2623.886719 3986.045898,2623.848145 
	C4014.007080,2623.485840 4040.113770,2623.111572 4066.220215,2622.737061 
	C4070.277832,2620.930664 4074.518799,2619.445557 4078.357666,2617.255615 
	C4088.584961,2611.421631 4098.639160,2605.284180 4110.154785,2598.909668 
z"/>
<path fill="#F4F4F4" opacity="1.000000" stroke="none" 
	d="
M3150.890137,3030.389893 
	C3159.652344,3023.179199 3163.494629,3011.885498 3170.413086,3003.111084 
	C3181.045166,2989.626221 3190.086670,2974.884033 3199.741211,2960.633057 
	C3207.163574,2949.677246 3214.762939,2938.828613 3221.807129,2927.632324 
	C3242.648193,2894.506348 3263.626465,2861.456299 3283.798340,2827.923584 
	C3294.400391,2810.299316 3303.442627,2791.735840 3313.167969,2773.584961 
	C3323.521973,2754.260986 3334.476074,2735.226562 3344.021729,2715.510254 
	C3354.425293,2694.022705 3362.623047,2671.447998 3373.389893,2650.159912 
	C3388.142578,2620.989258 3398.228760,2590.025146 3409.667236,2559.633789 
	C3418.745605,2535.513428 3425.318848,2510.359619 3431.646973,2485.321533 
	C3437.795166,2460.994141 3442.294189,2436.246094 3447.312012,2411.640625 
	C3448.100098,2407.776855 3447.908691,2403.692383 3447.979492,2399.706543 
	C3448.144775,2390.424072 3449.686768,2381.305420 3450.735352,2372.151367 
	C3452.689941,2355.086182 3452.768066,2337.479980 3450.806152,2320.423340 
	C3449.754639,2311.279053 3448.826660,2302.080566 3447.819824,2292.892090 
	C3446.456299,2280.445068 3444.739502,2267.918457 3441.691895,2255.798828 
	C3435.202148,2229.989258 3425.759521,2205.230225 3412.913818,2181.800049 
	C3403.312500,2164.287109 3393.052734,2147.361572 3379.060059,2132.851074 
	C3372.649414,2126.203613 3368.033936,2117.718750 3361.251465,2111.556396 
	C3341.112793,2093.260010 3319.935059,2076.207031 3295.484619,2063.766846 
	C3285.400635,2058.636230 3275.160645,2053.795654 3265.240723,2048.367432 
	C3261.902100,2046.540527 3259.333740,2043.306274 3255.914062,2039.250488 
	C3273.812744,2031.458862 3292.825684,2028.241821 3313.843994,2026.567139 
	C3317.430420,2032.160156 3321.576416,2034.642212 3327.085449,2036.396484 
	C3342.909912,2041.435547 3358.309082,2047.475342 3373.508545,2054.382812 
	C3394.320801,2063.841309 3412.738525,2076.874756 3430.886475,2090.132812 
	C3443.128906,2099.076416 3452.833252,2111.436279 3464.011963,2121.906006 
	C3486.696533,2143.152588 3503.522705,2168.645508 3516.015625,2196.694580 
	C3527.598145,2222.699707 3537.678467,2249.255615 3540.766602,2278.237305 
	C3543.144775,2300.557617 3547.508057,2322.697754 3547.874268,2345.226074 
	C3547.980469,2351.771973 3546.516602,2358.350586 3545.672607,2364.901367 
	C3545.249756,2368.181396 3544.126221,2371.433105 3544.129395,2374.696777 
	C3544.168213,2413.501709 3534.765625,2450.751221 3526.044434,2488.171387 
	C3516.362549,2529.714355 3500.578125,2569.116455 3485.953125,2609.017090 
	C3466.182861,2662.957764 3439.681396,2713.656006 3413.402344,2764.414062 
	C3392.656982,2804.484375 3369.988525,2843.601562 3345.457520,2881.572266 
	C3329.246826,2906.664062 3314.056641,2932.430908 3297.376953,2957.200195 
	C3281.460693,2980.835449 3263.964355,3003.401367 3247.690674,3026.804443 
	C3242.902588,3033.690918 3235.873291,3039.779541 3236.039062,3050.871582 
	C3227.039795,3050.621338 3217.934326,3049.318848 3209.089111,3047.016602 
	C3190.050293,3042.061279 3171.145264,3036.591797 3150.890137,3030.389893 
z"/>
<path fill="#F4F4F4" opacity="1.000000" stroke="none" 
	d="
M3591.169434,2665.134033 
	C3595.488281,2664.552246 3598.709717,2665.524902 3599.639648,2669.363037 
	C3602.436279,2680.904053 3605.313965,2692.432617 3607.745117,2704.052734 
	C3609.635498,2713.086914 3610.189697,2722.443848 3612.583008,2731.321533 
	C3619.651123,2757.540039 3629.203857,2782.960693 3638.202393,2808.564697 
	C3648.805176,2838.734131 3662.778564,2867.359863 3677.876465,2895.381348 
	C3690.120361,2918.105469 3701.875732,2941.137451 3716.286133,2962.703125 
	C3728.788086,2981.412598 3740.149414,3000.887451 3751.864990,3020.115479 
	C3753.563477,3022.902832 3754.425293,3026.200195 3755.796387,3030.696777 
	C3717.172363,3032.412109 3678.426270,3032.692383 3637.823730,3031.061768 
	C3635.852539,3021.385254 3631.570312,3015.485107 3627.538818,3009.306396 
	C3614.118896,2988.738770 3600.082275,2968.499512 3587.947998,2947.185791 
	C3572.492920,2920.038818 3558.592041,2892.003662 3544.161865,2864.278076 
	C3537.151123,2850.807373 3530.461182,2837.169678 3523.476562,2822.356201 
	C3522.256104,2816.954102 3518.938477,2816.419189 3515.426758,2816.196289 
	C3515.812988,2814.925049 3515.977051,2813.527344 3516.617920,2812.401123 
	C3543.642578,2764.924316 3567.783447,2715.996094 3591.169434,2665.134033 
z"/>
<path fill="#FFFFFF" opacity="1.000000" stroke="none" 
	d="
M3523.625732,2823.607666 
	C3530.461182,2837.169678 3537.151123,2850.807373 3544.161865,2864.278076 
	C3558.592041,2892.003662 3572.492920,2920.038818 3587.947998,2947.185791 
	C3600.082275,2968.499512 3614.118896,2988.738770 3627.538818,3009.306396 
	C3631.570312,3015.485107 3635.852539,3021.385254 3635.984375,3030.659180 
	C3630.034180,3032.463379 3624.066406,3033.011230 3618.098389,3033.016602 
	C3544.881592,3033.079834 3471.664795,3033.084473 3398.447998,3033.029053 
	C3392.697510,3033.024658 3386.947266,3032.462158 3381.044189,3032.151123 
	C3379.970703,3024.822998 3384.785156,3021.376953 3387.642822,3017.315674 
	C3425.569092,2963.411621 3461.258301,2908.076416 3494.519775,2851.175293 
	C3500.540527,2840.875977 3506.524170,2830.554932 3514.524414,2819.913574 
	C3518.891113,2820.924561 3521.258545,2822.266113 3523.625732,2823.607666 
z"/>
<path fill="#F4F4F4" opacity="1.000000" stroke="none" 
	d="
M3984.191406,2623.836182 
	C3956.959961,2623.886719 3929.727539,2624.073730 3902.497070,2623.933594 
	C3887.319824,2623.855469 3884.573975,2621.603027 3879.341064,2607.436279 
	C3875.214355,2596.263672 3871.546387,2584.875732 3866.671875,2574.034424 
	C3856.298340,2550.963379 3843.704590,2529.228516 3825.354492,2511.346191 
	C3815.402100,2501.647461 3806.274658,2491.050049 3794.111816,2483.807373 
	C3791.957031,2482.524414 3790.609375,2479.885498 3788.321045,2476.595459 
	C3800.567871,2465.152344 3816.036865,2461.020508 3831.252441,2456.433350 
	C3836.963867,2454.711182 3842.962158,2453.939209 3850.571777,2454.161865 
	C3854.933105,2458.418701 3857.083984,2462.041748 3860.265381,2463.916992 
	C3867.707031,2468.303711 3875.592285,2471.957520 3883.390137,2475.716797 
	C3897.303467,2482.424072 3909.334229,2491.497314 3920.514648,2502.224121 
	C3933.139648,2514.336670 3943.630615,2527.963135 3952.458984,2542.819580 
	C3967.442383,2568.032959 3980.558594,2594.114746 3984.191406,2623.836182 
z"/>
<path fill="#E0DDDE" opacity="1.000000" stroke="none" 
	d="
M3986.045898,2623.848145 
	C3980.558594,2594.114746 3967.442383,2568.032959 3952.458984,2542.819580 
	C3943.630615,2527.963135 3933.139648,2514.336670 3920.514648,2502.224121 
	C3909.334229,2491.497314 3897.303467,2482.424072 3883.390137,2475.716797 
	C3875.592285,2471.957520 3867.707031,2468.303711 3860.265381,2463.916992 
	C3857.083984,2462.041748 3854.933105,2458.418701 3852.091797,2454.242432 
	C3907.016357,2446.542480 3956.462646,2459.917725 3998.057861,2497.256592 
	C4022.189697,2518.918945 4039.172852,2546.177979 4051.343506,2576.112061 
	C4057.085938,2590.236328 4060.817383,2605.178223 4065.840088,2621.243164 
	C4040.113770,2623.111572 4014.007080,2623.485840 3986.045898,2623.848145 
z"/>
<path fill="#F4F4F4" opacity="1.000000" stroke="none" 
	d="
M2928.008301,2304.082031 
	C2926.399902,2305.190186 2924.811279,2307.226074 2923.180176,2307.260254 
	C2909.271973,2307.552246 2894.940186,2309.584473 2881.557617,2306.936768 
	C2867.617920,2304.178955 2853.937012,2304.126221 2840.098145,2304.133789 
	C2831.809570,2304.138428 2825.049561,2301.918945 2817.944824,2297.343506 
	C2791.717041,2280.453613 2763.769531,2266.763184 2734.850342,2254.999023 
	C2728.810547,2252.541992 2723.496826,2248.300537 2716.548828,2244.223633 
	C2734.545654,2234.279053 2755.324219,2232.105469 2778.669434,2232.392090 
	C2783.744385,2238.251221 2787.991211,2239.221924 2792.696045,2240.237549 
	C2837.526611,2249.911621 2878.428711,2269.069824 2917.270020,2292.901123 
	C2921.531738,2295.515869 2924.460938,2300.302734 2928.008301,2304.082031 
z"/>
<path fill="#E0DDDE" opacity="1.000000" stroke="none" 
	d="
M2929.881348,2304.054688 
	C2924.460938,2300.302734 2921.531738,2295.515869 2917.270020,2292.901123 
	C2878.428711,2269.069824 2837.526611,2249.911621 2792.696045,2240.237549 
	C2787.991211,2239.221924 2783.744385,2238.251221 2780.412354,2232.534912 
	C2787.959961,2227.056396 2796.744629,2228.569336 2805.168945,2229.116943 
	C2843.029053,2231.577393 2880.052490,2238.368896 2915.833008,2251.448975 
	C2950.854004,2264.250977 2984.336182,2279.990234 3015.691895,2302.647949 
	C2988.226807,2303.860840 2959.990723,2303.944092 2929.881348,2304.054688 
z"/>
<path fill="#E0DDDE" opacity="1.000000" stroke="none" 
	d="
M3523.476562,2822.356201 
	C3521.258545,2822.266113 3518.891113,2820.924561 3515.355957,2818.820801 
	C3514.188232,2818.058350 3514.418701,2816.866211 3514.922852,2816.531250 
	C3518.938477,2816.419189 3522.256104,2816.954102 3523.476562,2822.356201 
z"/>
</svg>